<svg width="200" height="200" viewBox="0 0 200 200" fill="none" xmlns="http://www.w3.org/2000/svg">
<g clip-path="url(#clip0_209_241)">
<path d="M100 200C155.228 200 200 155.228 200 100C200 44.7715 155.228 0 100 0C44.7715 0 0 44.7715 0 100C0 155.228 44.7715 200 100 200Z" fill="black"/>
<path d="M70.648 54.6875C74.96 54.6875 78.896 55.0715 82.456 55.8315C86.016 56.5915 89.056 57.8395 91.592 59.5755C94.128 61.3115 96.096 63.6155 97.496 66.4955C98.896 69.3755 99.592 72.9275 99.592 77.1595C99.592 81.7275 98.552 85.5355 96.48 88.5835C94.408 91.6315 91.336 94.1275 87.28 96.0715C92.864 97.6795 97.032 100.496 99.784 104.512C102.536 108.528 103.912 113.376 103.912 119.048C103.912 123.616 103.024 127.576 101.248 130.92C99.472 134.264 97.08 136.992 94.072 139.104C91.064 141.224 87.64 142.784 83.792 143.8C79.92 144.816 75.928 145.328 71.928 145.32H28V54.6875H70.648ZM68.112 91.3675C71.664 91.3675 74.584 90.5195 76.872 88.8315C79.16 87.1355 80.304 84.3915 80.296 80.5835C80.296 78.4715 79.912 76.7355 79.152 75.3835C78.392 74.0315 77.376 72.9675 76.104 72.2075C74.832 71.4475 73.376 70.9195 71.728 70.6235C70.032 70.3275 68.312 70.1755 66.584 70.1835H47.936V91.3835L68.112 91.3675V91.3675ZM69.256 129.824C71.136 129.832 73.008 129.64 74.84 129.256C76.616 128.872 78.184 128.24 79.536 127.352C80.888 126.464 81.968 125.256 82.776 123.736C83.576 122.216 83.984 120.264 83.984 117.896C83.984 113.248 82.672 109.92 80.048 107.936C77.424 105.944 73.952 104.952 69.64 104.952H47.936V129.832L69.256 129.824V129.824ZM128.984 127.92C131.688 130.544 135.584 131.856 140.664 131.856C144.304 131.856 147.432 130.944 150.056 129.128C152.68 127.312 154.288 125.384 154.88 123.352H170.744C168.208 131.224 164.312 136.848 159.064 140.232C153.816 143.616 147.472 145.312 140.024 145.312C134.864 145.312 130.208 144.488 126.064 142.84C121.92 141.192 118.408 138.84 115.528 135.792C112.648 132.744 110.424 129.112 108.864 124.88C107.304 120.648 106.52 115.992 106.52 110.92C106.52 106.016 107.32 101.448 108.928 97.2155C110.536 92.9835 112.824 89.3275 115.784 86.2395C118.744 83.1515 122.28 80.7195 126.384 78.9435C130.488 77.1675 135.04 76.2795 140.032 76.2795C145.616 76.2795 150.48 77.3595 154.632 79.5195C158.776 81.6795 162.184 84.5755 164.848 88.2155C167.512 91.8555 169.44 95.9995 170.624 100.656C171.808 105.312 172.232 110.176 171.896 115.256H124.552C124.8 121.072 126.28 125.304 128.984 127.92ZM149.36 93.3995C147.2 91.0315 143.92 89.8475 139.52 89.8475C136.64 89.8475 134.248 90.3355 132.352 91.3035C130.448 92.2795 128.928 93.4795 127.784 94.9195C126.64 96.3595 125.84 97.8795 125.376 99.4875C124.912 101.096 124.632 102.536 124.552 103.8H153.872C153.016 99.2395 151.512 95.7675 149.36 93.3995V93.3995ZM121.464 59.2875H158.096V69.4475H121.464V59.2875V59.2875Z" fill="white"/>
</g>
<defs>
<clipPath id="clip0_209_241">
<rect width="200" height="200" fill="white"/>
</clipPath>
</defs>
</svg>
