<svg width="832" height="92" viewBox="0 0 832 92" fill="none" xmlns="http://www.w3.org/2000/svg">
<g clip-path="url(#clip0_57_1032)">
<g filter="url(#filter0_f_57_1032)">
<path d="M314.083 4.88274C316.563 5.30848 314.424 8.17085 313.153 6.4321C313.016 5.79634 313.401 5.14936 314.083 4.88274ZM332.444 7.45635C335.827 6.0381 339.76 10.9446 335.719 11.8962C332.392 12.9324 328.476 8.61755 332.444 7.45635ZM517.935 -46.1444C519.939 -46.5208 520.584 -45.664 518.542 -45.6428C518.319 -45.6802 517.681 -46.0522 517.935 -46.1444ZM557.921 -56.7977C561.439 -58.1788 562.387 -53.0485 560.021 -52.8402C557.97 -53.8533 559.501 -55.6995 557.921 -56.7977ZM526.764 -47.2122C529.747 -44.214 535.447 -46.047 539.026 -43.2788C540.176 -42.5002 543.84 -39.9528 543.455 -42.3586C542.179 -43.7902 539.248 -46.8231 541.53 -47.7136C541.42 -46.1906 543.637 -46.2657 544.327 -46.3511C544.768 -43.4358 548.662 -41.2823 551.711 -42.9998C553.035 -44.4414 554.38 -41.3782 556.402 -42.7927C557.395 -42.6589 554.454 -41.3952 555.31 -40.3323C553.938 -38.8053 548.614 -38.6629 550.954 -35.6936C551.675 -34.105 549.509 -30.0355 553.38 -30.6426C555.446 -31.3702 554.203 -34.7352 555.083 -35.0887C558.464 -30.646 562.518 -26.4954 565.549 -21.8617C567.311 -19.5825 570.932 -19.692 573.516 -18.7373C575.452 -19.373 577.388 -19.5792 578.963 -17.8961C580.507 -17.0862 582.069 -18.2285 580.667 -16.6603C580.509 -14.2072 583.919 -14.4948 585.64 -14.4581C584.919 -12.6837 581.82 -10.0909 583.929 -7.85352C586.87 -7.97256 584.726 -4.98166 584.348 -3.89587C583.408 -3.21391 580.587 -2.93562 582.951 -1.34311C585.67 0.624178 588.378 -3.94834 589.697 -0.386575C591.529 2.50915 598.835 4.39356 596.72 7.86842C595.288 9.90635 598.833 11.4913 601.154 11.1971C604.879 11.4879 606.553 14.0261 607.842 16.4071C609.779 17.7714 612.545 17.4063 614.587 18.3784C616.464 17.7735 617.988 21.4127 620.392 19.8982C623.344 19.2944 624.063 16.6983 627.557 16.8719C631.752 15.5354 625.578 12.3709 624.98 10.6234C626.863 9.46088 624.855 7.20646 625.187 5.99481C626.987 5.87326 628.842 9.20931 629.796 6.63245C629.847 2.87443 623.157 0.374955 619.852 -0.587842C622.24 -2.05604 619.509 -3.55859 617.823 -4.66833C615.908 -6.81922 615.351 -9.28887 616.97 -11.0825C617.632 -12.3857 614.854 -16.8641 618.057 -14.6578C620.79 -11.7596 623.671 -8.78198 628.377 -7.69312C631.571 -6.16401 634.791 -6.42197 637.809 -6.01033C639.343 -6.45945 640.578 -7.67431 641.839 -5.83202C645.679 -4.43632 639.795 -4.92475 639.427 -3.15037C638.183 -1.76241 636.547 2.4255 640.747 2.26022C644.881 1.85459 648.686 -1.1824 652.937 0.405799C654.082 -0.710641 651.606 -2.47305 655.262 -1.43779C658.017 -1.32658 660.575 0.906991 658.946 2.65032C661.159 8.98833 673.443 9.00133 675.848 3.99016C678.759 1.79191 683.364 -0.318005 682.314 -4.2026C683.838 -9.14124 683.099 -14.5882 685.92 -19.1171C686.331 -20.4868 686.386 -25.523 689.735 -22.9579C694.258 -14.1077 691.473 -5.02225 688.848 3.08363C688.247 4.37296 688.75 6.40243 688.756 7.42387C686.57 7.22027 684.479 8.35198 686.07 10.0613C685.633 11.7098 684.27 13.8385 687.214 15.0684C690.727 17.7249 688.467 22.916 693.333 24.3576C696.605 24.8962 700.497 25.087 702.215 27.9412C706.141 30.5996 712.999 29.6188 714.09 26.258C716.091 24.4906 719.372 24.7743 721.893 26.1342C723.847 25.2107 722.882 28.0173 724.568 28.9287C726.905 30.526 725.341 33.5888 727.79 34.6276C726.149 36.3346 719.815 38.0595 723.841 40.9441C725.404 42.4517 728.677 42.717 728.111 44.8553C728.944 46.8728 731.878 47.9607 733.795 47.5784C735.632 50.8068 740.802 50.4961 742.405 48.0733C744.79 46.6622 745.188 44.3598 747.017 42.8503C747.339 41.8866 745.552 39.7291 747.587 41.5874C747.788 42.725 749.107 43.5036 749.899 44.1109C748.522 46.6138 752.813 47.3904 754.748 46.1728C756.196 45.851 761.053 43.5122 760.395 46.6239C759.903 48.9077 763.258 51.9178 760.312 53.7011C758.682 55.8714 751.54 55.5931 753.722 59.1665C755.574 61.135 757.452 58.0106 758.292 60.5768C760.277 61.5575 763.071 61.0794 763.854 63.4383C764.5 65.0875 768.17 67.609 764.869 68.205C763.858 70.2375 758.435 69.2126 759.158 71.8576C760.261 73.5422 758.505 75.0153 756.328 74.4624C752.439 76.3284 754.502 81.9397 757.812 84.4154C760.204 84.498 758.526 84.5111 758.12 85.6666C758.23 88.9392 756.705 93.2025 761.431 95.7018C763.227 96.3104 766.023 95.1518 766.09 97.5677C766.189 100.487 767.852 106.066 762.283 105.947C758.53 107.063 752.865 109.151 753.912 113.015C756.398 116.015 760.138 112.834 763.384 113.935C767.807 114.609 767.426 108.895 772.199 110.538C774.741 111.344 776.674 113.775 774.805 115.306C776.141 117.665 772.771 116.95 771.092 116.3C767.436 117.064 771.821 120.675 769.723 122.497C769.749 123.673 772.088 125.309 769.165 125.025C767.151 125.149 769.097 128.249 766.724 127.386C765.263 123.255 758.46 125.676 756.39 121.932C754.222 119.886 753.679 117.522 755.116 115.619C753.987 113.719 748.441 113.738 750.06 116.385C751.573 118.906 749.395 121.308 751.308 123.719C749.727 124.024 744.953 124.629 748.018 126.413C750.766 127.108 749.954 131.281 753.464 130.07C755.12 129.621 756.103 127.335 756.479 129.87C756.986 131.404 755.956 133.812 753.65 131.967C751.258 129.93 747.568 130.372 747.311 132.917C744.973 135.289 747.005 139.05 751.178 139.36C750.196 141.107 748.904 142.674 747.685 144.194C749.157 145.91 745.399 146.33 746.882 148.014C743.872 147.467 744.249 144.434 741.429 143.47C740.6 141.717 744.05 138.789 739.625 138.713C736.496 138.428 731.505 137.249 730.318 139.52C731.405 141.789 737.703 145.558 733.352 147.152C731.386 147.91 728.21 147.97 726.443 148.072C725.426 145.63 721.935 146.06 720.427 144.155C716.157 142.592 715.57 148.114 719.911 148.547C722.866 149.025 720.103 152.176 722.375 153.562C725.313 154.88 719.919 155.295 718.546 155.073C714.64 155.176 712.469 151.401 708.411 151.766C705.387 152.069 701.582 147.421 699.674 150.295C699.165 152.105 695.535 152.174 695.628 154.433C693.957 157.185 695.448 159.861 699.906 160.296C703.223 160.633 702.029 156.408 705.904 156.937C713.655 156.621 722.717 160.942 725.178 167.301C727.287 169.478 726.873 172.709 729.144 174.501C730.781 174.98 733.355 178.424 731.517 179.01C729.182 178.006 726.459 178.323 726.975 180.736C725.413 183.068 721.783 179.955 720.434 178.704C718.554 179.937 721.224 183.6 719.201 184.784C718.369 182.728 716.293 185.803 715.675 183.565C714.397 180.246 709.55 179.021 709.358 175.453C708.626 173.412 706.421 172.228 706.322 170.128C704.589 166.688 700.242 163.568 695.631 163.996C692.678 162.846 692.219 166.517 690.869 167.007C689.935 164.966 691.738 163.711 690.995 161.794C693.304 159.007 694.437 154.626 692.19 151.133C689.469 148.04 684.449 149.52 683.826 152.441C683.561 154.483 681.042 155.394 680.842 157.122C682.51 157.831 683.688 158.293 682.169 159.588C679.194 158.11 680.427 154.198 680.648 152.079C682.387 147.785 676.741 150.886 673.92 150.08C671.433 147.433 674.808 144.28 672.301 141.309C671.849 138.521 667.451 133.935 663.88 135.836C663.902 139.571 660.094 141.55 655.746 141.971C652.13 142.884 648.318 145.241 650.043 148.639C649.157 150.092 647.734 146.893 648.137 146.222C647.765 142.871 642.596 144.386 640.087 142.463C637.481 140.956 642.575 136.298 637.655 136.018C634.212 135.77 635.828 138.929 633.272 139.371C628.693 140.72 624.101 143.833 618.925 143.322C619.2 141.767 618.438 139.012 615.426 139.559C612.839 141.046 609.582 140.93 606.311 139.825C603.617 139.834 601.123 139.729 598.622 138.367C595.235 139.437 601.522 143.961 596.969 144.549C591.525 145.809 585.519 143.22 580.623 140.91C576.638 142.976 569.168 142.615 567.435 146.567C567.908 151.298 563.693 155.608 558.383 156.809C554.126 155.855 555.562 160.762 552.092 161.296C546.389 164.358 538.652 165.368 531.449 162.43C528.459 161.35 522.18 161.64 522.742 157.957C523.291 154.562 529.456 154.813 529.731 151.153C530.144 147.556 534.108 144.398 539.381 146.109C542.293 147.596 546.77 150.326 549.217 147.578C550.73 147.073 547.634 143.783 549.402 144.579C551.044 148.228 555.514 145.934 558.219 145.341C562.43 144.68 567.164 143.847 568.136 140.191C569.672 137.226 576.465 136.776 574.39 132.417C574.123 129.959 571.021 127.381 570.986 125.15C574.236 123.788 581.637 126.656 582.309 122.771C579.914 119.295 573.084 124.226 571.777 120.066C571.265 117.293 571.99 114.113 576.104 113.812C579.004 113.38 581.593 111.742 580.122 109.124C579.402 104.679 581.169 100.491 581.311 96.2837C579.731 95.5685 577.755 96.1155 576.259 94.5621C573.844 93.6013 571.585 94.9117 571.499 96.5577C568.665 98.8323 564.503 98.0818 560.621 97.7621C557.238 97.8675 556.245 94.198 553.014 93.5652C550.086 91.4425 549.66 88.555 550.272 86.098C550.78 85.0958 551.746 83.5267 553.765 83.0645C555.867 81.2291 561.097 82.6958 562.026 80.2149C560.805 78.3413 564.092 79.6506 564.277 80.7528C567.619 83.2535 571.167 85.5846 573.709 88.5843C577.093 90.4226 582.082 89.1709 584.578 92.0755C586.333 92.0083 587.616 92.0756 588.098 93.93C590.322 96.7982 589.059 100.783 594.029 102.337C596.009 103.125 597.989 102.244 599.684 103.724C603.705 103.69 600.013 99.3808 599.53 97.5806C600.525 94.3146 595.64 90.6948 592.009 89.4505C592.908 87.198 590.507 83.2343 587.043 83.5173C584.835 81.9983 590.028 81.2156 586.8 79.4558C585.272 78.4362 581.86 79.31 582.019 77.2208C584.381 77.2416 589.229 75.8309 585.895 73.5645C584.224 73.2291 582.531 71.9235 584.998 71.6539C587.783 72.1203 588.63 69.9047 585.857 69.2127C585.64 66.5404 588.785 64.2315 592.178 65.8329C596.198 65.2809 591.119 61.9459 590.244 61.5717C593.686 59.8386 589.356 56.5031 586.492 55.6269C584.915 53.5327 581.981 54.6611 580.081 54.3917C576.413 48.5444 566.648 47.934 559.84 46.8053C555.831 45.6066 552.303 50.8486 557.209 52.0646C560.223 53.5806 554.703 53.7604 554.554 51.4709C551.951 49.9066 552.323 53.1094 550.051 52.4248C546.169 52.4871 544.067 56.1813 540.284 55.6783C536.108 53.0139 535.259 48.3328 531.509 45.2379C529.27 42.1508 530.561 38.2958 532.801 35.969C537.952 34.1565 531.243 32.9121 528.641 31.6698C524.663 28.8808 525.379 23.3515 520.72 21.2255C514.194 23.0144 505.059 20.682 501.196 15.3247C497.327 13.7433 493.218 16.2452 489.58 16.7522C486.854 18.4805 493.1 21.3265 495.379 20.4807C497.146 20.3226 496.42 23.7601 498.936 24.0997C500.679 24.7138 503.169 24.6251 501.73 26.4271C500.942 28.2923 504.078 29.6707 502.871 31.384C502.778 33.654 506.41 34.7347 507.972 33.8265C507.713 36.0721 512.437 38.7429 512.39 39.9001C508.327 41.0824 513.408 44.6614 514.971 44.955C513.122 46.3759 512.757 43.2225 510.331 43.9464C508.147 44.9611 505.837 45.2962 503.162 45.1216C501.522 46.3282 500.801 45.4974 499.391 44.1801C494.917 42.3303 494.126 38.3843 492.941 35.22C491.098 34.2274 488.993 35.8848 487.142 34.0789C481.528 31.4217 477.15 24.9646 481.825 21.4278C484.586 21.1488 488.184 17.0727 483.634 16.2647C480.762 15.3475 477.211 17.5333 475.529 14.501C472.196 11.447 469.767 6.82466 474.198 4.50195C478.661 0.716588 486.28 5.92459 492.131 5.78408C494.606 5.48012 495.831 6.87596 496.778 8.46494C500.09 11.2478 504.821 11.1064 508.569 10.4856C510.575 10.9024 513.92 13.6837 514.559 11.0865C514.207 8.16941 521.039 9.69197 519.772 11.8971C515.13 12.5501 513.738 19.145 519.744 20.0741C526.405 20.0962 531.891 15.262 539.05 18.811C544.326 20.508 551.007 26.5692 546.364 30.047C545.168 31.0807 548.335 33.0652 545.29 32.5786C541.298 33.0304 546.106 35.9789 548.327 36.1516C550.033 36.782 552.819 34.9438 552.243 37.4043C549.521 39.5901 555.649 42.5698 558.372 43.0623C559.374 43.2599 554.789 43.8821 557.675 45.1499C563.908 47.9177 571.757 48.1227 576.171 44.5115C579.91 44.5137 582.926 48.0915 586.475 47.5647C588.431 49.3084 591.27 48.5231 590.873 46.3129C590.57 43.3928 591.018 40.7007 593.828 39.0025C594.351 36.2672 589.904 37.3839 588.033 37.6826C586.173 37.5203 581.035 37.6719 583.084 35.4227C581.516 31.405 590.608 29.9907 587.631 25.5772C586.953 24.0701 589.902 27.568 591.188 27.6738C595.117 28.5326 594.59 23.3258 590.926 22.9838C587.281 22.4749 586.119 19.6661 583.717 17.9561C582.152 17.6655 579.559 18.7578 579.548 16.5515C578.958 14.2264 578.676 11.5513 581.027 10.2448C580.016 6.26028 572.878 7.95695 569.798 5.74618C568.414 6.67293 564.023 6.06941 565.302 4.03404C565.414 2.18696 561.64 1.0819 561.455 0.299739C562.236 -2.48359 556.601 -4.21786 554.186 -5.92738C550.805 -6.04271 551.894 -9.83117 548.483 -9.78633C546.63 -11.0227 546.013 -13.4029 544.059 -14.716C543.123 -17.5006 544.989 -21.5579 539.937 -22.8829C537.35 -23.2521 538.736 -25.344 537.969 -26.7789C540.132 -26.5411 543.713 -21.4962 545.177 -25.1247C547.005 -22.9037 543.82 -23.1933 542.78 -22.1431C543.352 -19.1725 548.858 -20.8377 550.806 -21.4212C554.315 -21.4732 554.902 -25.2821 551.161 -26.1959C549.523 -27.2243 547.54 -29.2679 544.944 -28.7074C546.731 -30.329 542.202 -32.3084 544.551 -33.6876C547.012 -35.9671 541.959 -37.608 539.604 -36.6837C536.842 -36.9871 531.959 -35.4773 529.78 -37.3958C531.473 -39.0456 529.331 -43.7945 526.183 -41.8146C523.882 -41.7486 521.121 -46.7388 524.839 -44.6304C526.988 -44.3995 525.803 -46.92 526.764 -47.2159L526.764 -47.2122ZM378.108 -2.1468C381.846 -4.53958 387.974 1.06502 391.192 -2.41929C392.407 -4.24087 394.367 -0.693681 396.47 -1.09552C396.577 0.9943 399.947 3.72824 401.538 1.20474C400.696 -1.29652 403.502 2.49528 405.256 1.60414C407.408 1.05375 408.671 3.03969 410.283 3.61221C410.648 5.51697 413.326 7.79577 414.346 8.54984C412.291 9.03912 409.602 10.5169 411.296 12.4387C409.008 13.6938 405.319 10.2427 404.318 13.0238C404.073 14.0817 405.87 17.8614 403.196 17.1931C401.393 15.5337 405.995 14.8714 403.517 12.7836C402.543 10.5546 399.601 9.45651 397.138 10.1184C393.322 9.53948 389.293 8.08867 385.642 8.54179C385.541 10.0326 385.378 9.69621 383.616 9.91442C383.712 11.3543 382.804 11.9079 381.566 10.2799C379.338 10.5038 378.586 8.02806 376.097 7.97391C373.302 6.23696 372.268 3.08482 374.708 1.44244C375.062 -0.249028 376 -1.56068 378.108 -2.14658L378.108 -2.1468ZM413.079 -12.2497C415.358 -11.6295 413.889 -10.7619 413.079 -12.2497V-12.2497ZM465.719 -26.5466C465.569 -26.4073 465.465 -26.5643 465.719 -26.5466V-26.5466ZM548.006 -49.7958C549.489 -49.3355 551.08 -46.3386 548.63 -46.9146C548.679 -47.6918 547.074 -49.4448 548.006 -49.7958ZM339.157 15.7541C342.807 14.0255 347.922 18.0326 344.988 20.6396C341.903 24.7683 333.572 17.8627 339.157 15.7541ZM413.85 -6.648C415.464 -7.16391 417.245 -5.1245 414.442 -5.93879C413.935 -6.1405 412.848 -6.25033 413.85 -6.648ZM578.791 -56.2503C581.458 -55.7232 577.409 -55.8678 578.791 -56.2503V-56.2503ZM491.529 -27.7699C495.513 -29.3033 499.555 -23.7001 493.751 -23.9508C490.982 -23.979 488.205 -26.8978 491.529 -27.7699ZM582.953 -54.7158C584.368 -53.9496 583.174 -54.4517 582.953 -54.7158V-54.7158ZM415.368 -1.39769C417.331 -1.10554 415.355 -0.58974 415.368 -1.39769V-1.39769ZM526.966 -33.7004C529.03 -33.9358 527.232 -32.6116 526.371 -33.4447C526.551 -33.5538 526.755 -33.6218 526.966 -33.7004ZM437.282 -4.99626C438.27 -5.91502 443.049 -5.11668 439.924 -4.14503C439.085 -3.65896 434.263 -2.5308 435.919 -4.33104C436.315 -4.61282 436.805 -4.79984 437.282 -4.99625L437.282 -4.99626ZM523.447 -29.1373C525.73 -30.1395 527.981 -26.807 525.768 -26.1851C523.424 -26.8095 520.81 -27.4202 523.447 -29.1373ZM581.619 -46.0178C583.41 -46.2057 583.816 -43.159 586.137 -44.3633C588.356 -44.4401 591.101 -46.4345 592.519 -46.265C594.401 -45.0424 593.699 -42.2299 590.985 -43.595C587.379 -44.4799 587.632 -40.7186 587.485 -39.9252C585.335 -41.0671 581.292 -39.7472 582.665 -42.4523C582.055 -43.5368 584.164 -44.5149 581.959 -45.6891C581.891 -45.8202 581.425 -45.9755 581.619 -46.0177L581.619 -46.0178ZM561.25 -38.9285C564.211 -40.0423 560.999 -36.1749 560.35 -38.3018C560.506 -38.6116 560.845 -38.815 561.25 -38.9285ZM424.204 2.63091C427.553 1.46082 432.444 1.74455 434.03 5.19384C435.17 6.93122 435.739 8.79422 433.903 9.84928C434.371 11.5255 433.388 11.9408 431.394 10.8606C428.879 9.6248 425.744 11.1925 424.188 8.47028C422.643 6.66656 421.371 3.52126 424.204 2.63087L424.204 2.63091ZM394.306 12.0394C396.854 12.4567 393.484 13.0741 394.306 12.0394V12.0394ZM573.718 -42.1099C575.295 -42.0531 577.995 -40.772 575.133 -40.2033C573.918 -39.0301 572.054 -41.7919 573.718 -42.1099ZM658.809 -67.7279C660.552 -68.3672 664.617 -67.546 662.805 -65.662C658.54 -62.1935 663.756 -56.9942 663.822 -52.6235C664.524 -48.6371 666.209 -44.4281 666.057 -40.6166C664.739 -39.8868 663.235 -43.1916 662.689 -44.0895C662.259 -46.27 659.343 -48.1755 661.149 -50.0173C662.61 -55.6003 658.048 -61.6087 658.026 -67.1105C658.227 -67.3682 658.399 -67.6246 658.809 -67.7276L658.809 -67.7279ZM513.607 -22.2081C516.775 -22.5189 513.787 -17.4146 512.406 -19.0806C514.205 -19.7862 512.657 -21.5518 513.607 -22.2081ZM572.331 -35.0697C574.334 -35.6951 575.045 -33.4326 572.549 -33.8165C571.419 -33.8705 571.584 -34.7923 572.331 -35.0697ZM417.602 12.1339C418.972 11.4359 422.691 10.8375 421.932 13.1348C422.207 15.1661 420.604 17.1901 417.816 15.3669C415.199 14.51 415.319 12.7726 417.602 12.1339L417.602 12.1339ZM668.885 -63.4641C671.197 -64.1259 669.905 -61.0631 668.983 -62.8087C668.961 -62.9906 668.512 -63.4021 668.885 -63.4641ZM470.226 -2.51341C470.725 -3.18542 474.168 -2.65286 472.862 -2.04086C472.028 -2.0605 470.818 -2.27982 470.226 -2.51341ZM585.731 -36.8074C587.39 -36.0738 588.591 -33.0047 585.724 -34.3701C586.497 -35.1089 585.574 -36.1127 585.731 -36.8074ZM708.082 -73.5494C710.596 -74.925 715.535 -70.8925 712.397 -69.7537C712.616 -67.0465 714.948 -64.1396 713.786 -61.4214C713.287 -58.4348 712.455 -57.59 713.328 -61.283C713.903 -64.3617 713.763 -69.239 708.923 -70.7087C708.307 -71.325 706.906 -73.1711 708.082 -73.5496L708.082 -73.5494ZM439.502 11.3809C443.803 10.6294 447.545 13.7973 450.582 15.9757C453.107 16.1106 455.399 15.3672 457.925 16.7264C460.203 17.3104 463.613 17.1466 465.01 16.7179C461.433 17.0644 462.5 20.3042 465.319 21.5713C468.104 22.8951 467.236 23.1494 466.236 24.3891C467.536 27.6494 462.542 29.4581 459.285 30.141C456.18 29.8863 457.197 32.1946 457.569 33.5511C454.118 34.6157 458.945 36.554 460.434 37.5565C462.167 38.8196 457.548 38.7504 456.738 37.8357C452.021 36.3704 447.373 34.3774 444.543 30.8636C440.378 29.4694 435.294 32.9578 431.6 29.3177C426.913 25.9478 431.276 20.3992 436.899 22.5934C438.91 23.5804 443.094 24.1849 443.766 25.9488C440.929 27.0773 444.608 31.8206 446.419 29.0797C447.276 24.9032 445.003 19.3016 439.099 17.2361C435.704 15.5855 437.025 12.3922 439.502 11.381L439.502 11.3809ZM393.401 25.6312C395.966 26.2486 399.334 23.5283 400.751 26.7605C403.029 30.7614 410.092 30.4034 411.145 26.9958C414.228 27.3099 414.54 29.3161 414.729 31.1648C416.685 33.9842 420.7 37.8832 424.6 37.9507C424.199 40.1168 419.137 41.2022 422.385 44.0231C425.121 44.7112 427.144 46.8785 430.326 47.1551C433.279 48.3153 426.474 45.4683 425.017 46.754C423.104 49.3204 429.188 50.6173 431.414 51.57C434.55 52.8907 438.514 53.4959 441.431 54.3289C440.519 55.5877 436.926 53.1472 435.252 53.0745C433.305 52.2153 427.503 51.8005 430.362 54.5512C432.213 56.0916 434.983 57.4831 432.887 59.243C432.557 61.8373 435.582 64.6818 439.01 64.5225C441.753 65.4228 441.686 68.3279 438.702 68.167C436.599 68.0799 433.4 69.2786 434.713 70.868C433.914 68.8586 428.843 68.754 431.172 71.151C429.035 69.1446 426.558 71.6261 424.028 69.7313C421.605 68.3183 418.543 68.6131 417.806 70.4432C411.798 66.2838 410.803 59.7428 412.857 54.8398C416.496 53.3409 411.232 51.0257 408.857 51.6591C405.269 51.8779 401.704 52.9892 398.086 51.9179C396.838 52.4023 398.015 54.9491 396.737 52.6042C396.652 49.2394 390.907 47.1587 388.283 49.2972C386.3 51.4631 389.41 54.9149 387.727 56.9992C385.229 54.3969 386.74 50.8416 386.712 47.8939C383.216 44.0857 378.771 39.2147 379.941 34.6167C382.8 30.4717 390.534 29.8887 393.311 25.6329L393.401 25.6312ZM587.409 -31.632C591.137 -32.0477 595.256 -33.5611 599.104 -32.0176C598.962 -29.4751 595.419 -31.164 593.495 -30.4255C591.344 -32.3489 588.307 -27.7851 587.296 -31.0649C587.33 -31.2429 586.502 -31.9102 587.409 -31.6319L587.409 -31.632ZM777.137 -85.5732C778.353 -84.2585 775.844 -85.3251 777.137 -85.5732V-85.5732ZM458.747 13.8649C459.962 13.3062 462.214 15.1437 459.776 14.2646C459.469 14.1534 458.939 14.0008 458.747 13.8649ZM603.792 -29.7802C604.735 -27.6244 607.913 -27.3294 609.786 -27.0495C610.921 -24.1799 614.526 -22.9204 617.135 -21.3033C617.154 -18.962 610.344 -20.4406 611.842 -17.295C608.22 -16.2933 604.489 -12.8927 606.773 -9.85378C604.236 -7.7176 607.712 -3.69884 609.228 -1.66549C605.782 0.457192 608.281 4.51453 609.594 7.38219C607.996 10.231 602.15 6.25442 605.429 4.27644C606.531 1.19822 602.93 -2.00276 599.872 -3.88831C600.325 -5.86733 599.3 -8.04592 598.132 -9.9332C598.158 -11.849 602.938 -12.4398 599.47 -14.7003C598.8 -15.908 601.43 -17.7435 602.192 -15.852C604.971 -13.778 610.4 -17.0528 606.32 -18.849C602.899 -19.4844 598.789 -19.0969 596.135 -21.3543C598.447 -21.9351 598.923 -23.5091 600.993 -23.9882C601.31 -24.959 600.479 -27.1447 601.576 -27.3098C603.852 -24.9231 606.532 -26.2065 603.792 -29.7799L603.792 -29.7802ZM520.144 -4.4208C522.147 -4.96993 518.022 -3.05404 520.144 -4.4208V-4.4208ZM501.67 2.80663C503.699 1.81329 510.284 2.4198 508.089 4.97793C505.959 3.81587 502.196 4.12753 500.751 3.3123C500.968 3.06204 501.319 2.93061 501.67 2.80666L501.67 2.80663ZM419.669 27.9226C421.795 26.4438 424.333 28.8516 422.328 30.1385C421.817 29.6413 418.786 28.2797 419.669 27.9226ZM528.536 -4.95057C529.812 -5.23745 533.739 -5.55057 533.906 -4.08622C533.067 -1.65526 536.969 -2.11946 538.351 -2.86618C539.55 -1.59648 542.642 2.72083 538.781 2.07743C536.374 1.65057 534.986 3.20066 532.438 2.19154C531.215 2.06474 531.273 -0.733083 529.968 -1.67937C529.739 -2.49805 527.688 -4.28023 528.536 -4.95072L528.536 -4.95057ZM672.872 -47.3163C675.181 -48.5392 678.371 -46.0346 675.796 -44.6987C673.441 -42.4225 669.295 -46.3699 672.872 -47.3163ZM593.122 -20.3687C592.882 -19.5815 588.867 -18.3938 591.14 -19.6688C591.77 -19.9442 592.436 -20.1684 593.122 -20.3687ZM525.194 6.10378C525.336 7.1699 523.226 8.51837 524.436 6.71321C524.593 6.45399 524.85 6.21434 525.194 6.10378ZM475.046 21.906C476.966 21.1391 478.242 24.0654 475.486 22.9401C474.215 22.7824 474.156 22.378 475.046 21.906ZM530.333 6.20108C530.862 6.30306 530.099 6.54137 530.333 6.20108V6.20108ZM437.907 34.5917C439.705 33.9794 441.725 36.0312 439.194 36.5368C437.863 37.7471 436.084 36.6223 437.516 35.2934C437.787 35.2037 437.596 34.676 437.907 34.5918L437.907 34.5917ZM719.046 -49.9707C720.574 -49.7471 719.08 -49.4009 719.046 -49.9707V-49.9707ZM683.113 -38.4608C685.35 -38.005 683.323 -36.3512 682.575 -37.3343C682.609 -37.7442 682.779 -38.1774 683.113 -38.4608ZM589.281 -7.66695C590.402 -6.06481 594.437 -8.1412 592.792 -6.24113C594.398 -4.98239 588.006 -6.62281 589.281 -7.66695ZM686.343 -35.1492C686.449 -34.9921 686.242 -35.177 686.343 -35.1492V-35.1492ZM612.151 -11.3003C613.102 -9.62225 611.673 -10.2497 612.151 -11.3003V-11.3003ZM540.535 10.2993C542.369 9.49896 546.539 11.5149 544.591 12.7785C542.936 12.7367 541.454 11.2613 540.535 10.2993ZM704.242 -38.1186C705.44 -37.9841 702.857 -37.2861 704.191 -38.1032L704.242 -38.1186ZM593.455 -4.31024C595.803 -2.36899 592.242 -2.44858 592.883 -4.11218C593.227 -4.02371 593.254 -4.81013 593.455 -4.31024ZM700.588 -36.4823C702.542 -35.8625 701.474 -32.9436 701.671 -31.6597C700.114 -27.2479 703.423 -21.7086 700.597 -17.8143C699.499 -16.4802 696.895 -15.5253 697.08 -18.3252C695.387 -21.3894 698.821 -23.4766 697.883 -26.2543C696.468 -27.7715 694.642 -29.4513 697.428 -30.4041C699.856 -31.9758 697.781 -35.3792 700.588 -36.4824L700.588 -36.4823ZM695.208 -34.1731C697.008 -34.439 694.418 -32.9633 695.208 -34.1731V-34.1731ZM782.296 -60.2415C784.259 -59.9493 782.283 -59.4335 782.296 -60.2415V-60.2415ZM479.78 31.6891C481.999 32.249 477.729 33.0061 479.502 31.8236C479.597 31.783 479.674 31.7174 479.78 31.6891ZM662.484 -21.8311C662.335 -21.6918 662.231 -21.8487 662.484 -21.8311V-21.8311ZM771.174 -53.8644C772.973 -54.1303 770.383 -52.6546 771.174 -53.8644V-53.8644ZM509.901 25.3842C512.404 24.4446 515.488 25.1134 517.61 26.7346C518.143 27.0434 516.874 29.9698 519.92 29.7156C520.188 32.9534 516.035 35.4269 511.83 33.6551C510.947 32.2952 509.093 32.9755 509.299 31.4007C508.382 30.1307 505.357 30.9919 507.036 29.0905C507.138 27.1778 507.444 26.0985 509.901 25.3843L509.901 25.3842ZM398.475 60.5777C399.153 61.5619 398.84 63.2901 398.371 61.3446C398.22 61.2916 398.26 59.8854 398.475 60.5777ZM448.024 45.489C450.911 44.5191 455.962 48.5284 453.111 50.2187C449.979 51.0721 444.83 47.3826 448.024 45.489ZM660.008 -18.4197C662.818 -19.5823 666.92 -18.4752 667.17 -15.3565C668.892 -12.5287 665.441 -9.0179 661.816 -9.22419C657.58 -9.76229 654.664 -12.7855 656.277 -15.7456C656.928 -17.033 658.415 -17.8652 660.008 -18.4197L660.008 -18.4197ZM569.306 9.01915C570.783 9.44609 570.714 10.6653 569.306 9.01915V9.01915ZM388.183 64.4209C389.51 64.5147 387.987 64.985 388.183 64.4209V64.4209ZM476.358 37.872C478.855 36.9515 481.882 37.8055 483.312 39.8818C485.551 40.6412 484.454 43.7013 482.982 44.3701C478.429 46.6338 470.605 39.8863 476.358 37.8722L476.358 37.872ZM465.638 42.7325C466.639 41.8983 468.982 42.8137 467.204 43.5281C464.479 44.1342 461.173 44.3857 465.168 42.8998C465.33 42.8522 465.474 42.7786 465.638 42.7325L465.638 42.7325ZM444.137 50.9752C445.633 51.2701 447.843 52.7591 445.357 52.3571C444.799 52.0545 444.249 51.3459 444.137 50.9752ZM737.889 -37.2943C738.656 -37.5973 737.392 -36.0772 737.889 -37.2943V-37.2943ZM617.551 0.184336C618.57 0.00796726 620.16 2.30702 620.002 3.14802C617.599 2.66878 614.242 3.88068 616.493 1.26471C616.744 0.830818 617.042 0.436308 617.551 0.184328L617.551 0.184336ZM647.109 -7.24423C647.81 -6.41595 645.975 -6.30859 647.109 -7.24423V-7.24423ZM472.421 45.5042C474.255 45.5025 468.426 47.588 471.037 46.2771C471.419 45.9395 471.935 45.7408 472.421 45.5042ZM469.789 47.1614C468.05 48.041 471.38 50.5941 468.077 50.3927C465.716 49.6103 469.373 47.6966 469.789 47.1614ZM676.089 -14.5745C675.94 -14.4352 675.836 -14.5921 676.089 -14.5745V-14.5745ZM724.701 -29.2786C730.224 -31.3643 737.057 -27.2393 741.781 -24.3905C743.058 -22.7695 742.433 -20.6732 743.004 -18.8491C744.134 -12.0236 734.635 -7.37717 726.451 -10.7049C716.584 -13.3703 712.973 -26.5502 723.062 -28.7072C723.598 -28.9104 724.145 -29.1017 724.701 -29.2783L724.701 -29.2786ZM576.41 15.9302C576.496 16.168 576.205 15.7283 576.41 15.9302V15.9302ZM806.58 -51.4403C807.796 -50.1256 805.287 -51.1922 806.58 -51.4403V-51.4403ZM673.493 -11.2031C676.797 -11.5164 674.453 -6.12252 672.168 -9.28081C671.364 -10.2302 672.588 -10.898 673.493 -11.2031ZM571.88 21.1794C573.073 20.6281 575.467 21.7017 573.261 22.1576C571.274 23.4534 570.102 22.0217 571.88 21.1794ZM821.513 -53.3112C822.042 -53.2092 821.279 -52.9709 821.513 -53.3112V-53.3112ZM791.314 -43.7105C793.487 -43.637 791.089 -41.0862 790.69 -43.2684C790.755 -43.5058 791.074 -43.5972 791.314 -43.7105ZM514.472 41.203C515.18 42.2011 513.575 40.8189 514.472 41.203V41.203ZM578.612 22.343C580.527 22.1717 581.466 23.8154 579.401 23.1194C579.229 23.0732 577.685 21.9375 578.612 22.343ZM391.883 79.336C396.093 78.903 397.242 84.946 392.232 83.6954C390.091 82.6199 389.668 80.0784 391.883 79.336ZM553.847 31.2416C556.175 31.9288 553.489 33.7683 553.119 31.9433C553.13 31.6188 553.495 31.3564 553.847 31.2416ZM465.805 59.4246C466.948 59.4456 470.746 61.6322 467.82 60.668C467.372 60.4782 465.106 59.328 465.805 59.4246ZM451.538 64.1893C452.81 63.9723 455.18 65.0917 452.648 64.6659C452.559 64.6334 450.615 64.1187 451.538 64.1893ZM709.574 -13.3461C710.322 -13.5079 708.907 -13.0801 709.574 -13.3461V-13.3461ZM511.031 48.6603C511.117 48.898 510.826 48.4583 511.031 48.6603V48.6603ZM571.308 30.4337C571.413 30.5908 571.207 30.4059 571.308 30.4337V30.4337ZM577.278 29.8487C578.941 30.0698 578.244 32.3114 577.22 30.5004C577.146 30.2902 577.052 29.99 577.278 29.8487ZM508.721 51.8692C511.724 51.2468 509.59 52.2449 508.721 51.8692V51.8692ZM756.58 -22.6695C758.743 -23.3006 760.852 -20.78 758.531 -20.1382C756.868 -19.8185 755.851 -21.7626 756.58 -22.6695ZM449.172 71.4232C452.935 69.717 459.032 73.8304 458.314 76.8313C457.408 79.3005 461.951 77.3761 463.418 78.8163C467.557 79.6483 469.872 83.6135 467.322 85.7298C463.102 86.1525 459.021 83.7916 456.522 81.0504C453.015 80.3081 449.118 79.2359 447.057 76.4C445.474 74.3648 446.825 72.1639 449.172 71.4233L449.172 71.4232ZM566.841 36.425C569.485 35.3796 571.721 36.8252 573.485 38.7058C570.775 39.3447 567.118 39.6512 566.583 36.4519L566.841 36.425ZM701.376 -3.56477C704.305 -3.82226 699.972 -1.88621 701.047 -3.41481C701.149 -3.47112 701.258 -3.52645 701.376 -3.56477ZM749.664 -15.7105C751.569 -15.28 747.882 -14.0877 749.602 -15.6663C749.736 -15.6422 749.582 -15.7167 749.664 -15.7105ZM794.207 -28.0192C795.735 -27.7956 794.241 -27.4493 794.207 -28.0192V-28.0192ZM487.565 65.1067C491.345 63.4291 496.043 69.1428 491.08 69.4485C487.755 69.6622 484.059 66.7257 487.565 65.1067ZM811.875 -32.7707C814.792 -30.7169 808.845 -30.6907 811.875 -32.7707V-32.7707ZM464.753 72.756C466.552 72.4901 463.962 73.9658 464.753 72.756V72.756ZM822.957 -34.5443C826.469 -35.5291 827.555 -30.911 824.053 -31.2729C821.215 -31.332 821.132 -33.743 822.957 -34.5443ZM752.744 -13.1397C757.084 -14.101 756.908 -8.86877 753.161 -9.73951C752.2 -10.6782 751.003 -12.6247 752.744 -13.1397ZM736.212 -7.13315C738.248 -6.92652 736.362 -3.88101 735.995 -6.30661C735.962 -6.61087 735.944 -6.93625 736.212 -7.13315ZM580.811 40.6792C581.899 41.4913 584.137 43.7019 581.523 42.4937C580.937 42.0209 580.703 40.9311 580.811 40.6792ZM697.151 6.25971C697.238 6.49747 696.947 6.05775 697.151 6.25971V6.25971ZM468.718 75.237C471.159 74.9574 467.058 77.8216 467.941 75.7253C468.127 75.505 468.39 75.3423 468.718 75.237ZM406.975 94.3881C408.656 94.6835 404.895 96.0032 406.573 94.6111C406.772 94.6131 406.812 94.4279 406.975 94.3881ZM413.878 92.3037C415.863 91.6355 414.259 93.4477 413.816 92.3479L413.853 92.3114L413.878 92.3037ZM844.223 -37.4647C844.741 -36.4166 843.049 -36.9762 844.223 -37.4647V-37.4647ZM500.073 66.7838C500.899 66.8067 499.487 67.2892 500.073 66.7838V66.7838ZM729.645 -0.101921C730.47 -0.0789688 729.059 0.403491 729.645 -0.101921V-0.101921ZM692.013 11.8447C692.118 12.0018 691.912 11.8169 692.013 11.8447V11.8447ZM550.791 55.1221C553.141 54.1709 555.502 57.384 552.912 57.957C550.946 57.5867 547.536 56.1408 550.791 55.1221ZM790.18 -16.5545C790.03 -16.4152 789.926 -16.5722 790.18 -16.5545V-16.5545ZM776.685 -12.3781C777.901 -11.0634 775.392 -12.1299 776.685 -12.3781V-12.3781ZM518.396 65.7917C522.436 65.0123 528.326 66.9687 530.758 69.923C529.979 71.6464 529.663 74.3264 533.106 74.9474C537.236 76.2238 543.698 76.0311 546.735 77.8082C539.831 77.5259 532.765 73.9538 526.095 75.6692C521.162 76.1135 513.161 72.3913 515.959 67.9741C516.402 67.0471 517.185 66.2104 518.396 65.7922L518.396 65.7917ZM474.566 80.701C478.167 79.192 484.097 82.0078 484.416 85.2861C484.049 90.5594 470.596 87.0444 473.215 82.1236C473.438 81.5322 473.838 80.9664 474.566 80.7011L474.566 80.701ZM700.411 15.0167C702.348 15.3118 701.411 17.4083 699.644 15.7049C699.821 15.4186 700.034 15.1616 700.411 15.0167ZM419.69 101.228C424.595 99.3585 431.321 104.115 429.309 108.141C426.943 110.666 420.948 109.239 418.683 106.632C418.392 104.624 416.496 102.072 419.691 101.228L419.69 101.228ZM501.184 78.8024C502.201 79.1584 500.15 79.9478 501.184 78.8024V78.8024ZM749.226 5.14723C749.312 5.38499 749.021 4.94528 749.226 5.14723V5.14723ZM738.167 9.17146C738.685 10.2196 736.993 9.66001 738.167 9.17146V9.17146ZM445.152 97.6749C445.681 97.7769 444.919 98.0152 445.152 97.6749V97.6749ZM718.11 16.5469C720.279 16.8115 717.227 18.0436 718.11 16.5469V16.5469ZM848.616 -22.835C848.466 -22.6957 848.363 -22.8527 848.616 -22.835V-22.835ZM557.952 65.1107C560.329 64.9432 556.884 66.4069 557.952 65.1107V65.1107ZM494.105 84.593C496.658 84.0458 494.72 85.2838 494.105 84.593V84.593ZM574.392 61.415C576.095 62.7519 580.041 61.6056 580.935 63.2192C580.591 65.0741 580.124 69.1486 576.364 66.4258C572.611 65.2458 572.781 63.5132 574.392 61.4151L574.392 61.415ZM798.107 -5.17353C801.052 -6.39019 800.184 -1.45044 797.753 -3.72226C796.402 -4.37523 797.254 -4.80952 798.107 -5.17353ZM843.537 -18.8662C845.314 -20.0038 846.446 -17.6458 844.963 -17.2672C843.974 -17.5572 841.443 -18.2921 843.537 -18.8662ZM483.278 90.7286C485.005 90.371 485.614 92.267 483.241 91.2726C482.559 91.1387 482.941 90.8909 483.278 90.7286ZM839.802 -15.3284C841.971 -15.0637 838.919 -13.8316 839.802 -15.3284V-15.3284ZM785.001 1.47298C788.029 1.9149 784.791 4.88122 784.297 2.39571C784.341 2.00183 784.556 1.65075 785.001 1.47298ZM777.091 4.62235C779.467 4.45485 776.023 5.91856 777.091 4.62235V4.62235ZM549.664 73.5496C552.081 73.5803 553.188 76.726 555.99 76.9664C555.303 78.7032 550.914 79.055 549.856 76.3327C549.349 75.439 548.533 74.1139 549.664 73.5495L549.664 73.5496ZM567.352 69.1978C570.496 68.6148 575.692 70.5163 573.501 73.4547C573.031 75.2177 572.256 75.0859 570.586 73.8529C568.741 73.1498 566.221 72.7378 567.79 70.9681C567.871 70.3894 567.605 69.6942 567.352 69.1978L567.352 69.1978ZM832.993 -10.837C835.162 -10.5723 832.11 -9.34025 832.993 -10.837V-10.837ZM406.252 118.833C408.051 118.567 405.461 120.042 406.252 118.833V118.833ZM763.682 11.0054C766.036 9.95581 767.708 13.6984 767.046 14.6571C764.278 14.8105 759.685 12.5588 763.682 11.0054ZM537.514 80.8205C539.911 80.6548 540.345 83.7621 537.7 82.7176C536.978 82.212 536.786 81.1738 537.514 80.8205ZM730.638 22.911C734.323 23.5965 728.899 25.1547 730.638 22.911V22.911ZM742.613 20.1322C744.333 19.0548 747.53 20.1228 744.907 21.5197C742.805 22.3485 740.365 25.7104 737.687 24.2326C737.984 22.1745 740.311 20.9264 742.613 20.1322L742.613 20.1322ZM758.208 15.8037C758.955 15.3748 762.143 15.0399 759.857 15.94C759.343 16.4373 754.383 17.5404 756.849 16.2902C757.288 16.1104 757.744 15.95 758.208 15.8038L758.208 15.8037ZM472.38 103.025C476.104 101.752 478.365 106.429 482.143 106.647C484.238 108.025 484.03 111.267 487.576 111.577C488.964 112.339 485.235 113.342 486.513 114.866C488.645 116.885 483.409 117.026 485.992 119.158C487.541 119.682 485.279 125.36 482.679 124.59C474.257 123.269 466.139 118.786 460.596 113.204C461.78 108.394 467.343 105.293 472.38 103.025ZM774.13 14.4205C777.269 13.7273 777.931 19.0805 774.249 17.5555C772.057 16.8179 772.823 15.1241 774.13 14.4205ZM793.059 9.54188C795.436 9.37442 791.991 10.8381 793.059 9.54188V9.54188ZM569.405 77.42C572.319 77.2107 576.721 80.7238 574.47 81.9787C572.909 81.3815 570.824 81.9199 569.965 80.0667C569.349 79.2895 568.801 78.1388 569.405 77.4199L569.405 77.42ZM433.086 120.993C436.227 124.542 441.656 128.977 443.697 131.944C438.582 129.052 436.124 124.402 432.581 120.46L433.086 120.993ZM536.359 89.2758C539.444 87.7529 544.764 92.2029 540.841 93.554C538.047 94.0576 532.903 90.9143 536.359 89.2758ZM444.463 120.272C446.632 120.536 443.58 121.768 444.463 120.272V120.272ZM575.271 82.7262C576.775 82.3561 578.317 82.763 577.948 84.2771C577.13 86.6327 574.171 82.5857 575.271 82.7262ZM736.143 33.9976C738.768 34.1566 736.732 36.2025 735.749 34.6493C735.715 34.3798 735.884 34.1361 736.143 33.9976ZM733.106 37.1215C733.408 38.8226 738.061 41.5681 733.964 41.8345C730.703 43.8441 729.215 38.3271 731.951 37.5464C732.231 37.5059 732.983 36.6369 733.106 37.1215ZM752.045 31.6565C754.378 32.5775 753.178 33.2089 751.708 32.164C751.787 32.0062 751.781 31.5956 752.045 31.6565ZM447.066 124.483C448.8 123.825 450.138 126.143 447.628 125.379C446.878 125.124 445.867 124.85 447.066 124.483ZM742.254 36.0337C745.183 35.7762 740.85 37.7122 741.925 36.1836C742.027 36.1273 742.136 36.072 742.254 36.0337ZM550.428 95.8595C552.064 96.493 551.686 97.2168 550.428 95.8595V95.8595ZM774.91 31.1194C778.122 30.3158 780.388 36.0714 776.078 35.0539C772.673 34.8007 773.329 32.1939 774.91 31.1194ZM531.624 104.81C534.691 103.97 538.819 103.185 541.301 105.947C543.708 107.808 548.898 108.525 549.543 111.195C546.532 113.841 541.553 116.161 536.48 115.748C531.576 114.346 527.977 110.259 529.776 106.636C529.988 105.757 530.54 105.092 531.624 104.81L531.624 104.81ZM419.564 141.768C422.316 141.225 422.301 145.666 419.367 144.009C417.651 143.699 418.779 142.123 419.564 141.768ZM769.685 36.7055C769.535 36.8447 769.431 36.6878 769.685 36.7055V36.7055ZM591.391 93.1792C593.314 93.233 593.034 94.8984 590.909 93.8827C590.917 93.5531 591.107 93.3619 591.391 93.1792ZM783.858 36.6352C786.483 36.7941 784.447 38.8401 783.464 37.2868C783.43 37.0173 783.599 36.7736 783.858 36.6352ZM777.848 39.5152C777.935 39.7529 777.644 39.3132 777.848 39.5152V39.5152ZM510.616 121.4C513.014 120.287 514.892 123.746 511.741 123.192C511.047 122.803 510.447 121.98 510.616 121.4ZM421.247 150.39C422.851 150.573 421.318 151.889 421.247 150.39V150.39ZM502.274 127.496C506.446 127.12 513.249 125.628 516.547 129.249C518.086 132.826 513.047 135.685 509.28 135.908C505.897 134.357 499.323 136.323 498.216 132.4C500.282 131.247 500.128 128.522 502.275 127.496L502.274 127.496ZM574.509 106.369C576.886 106.202 573.441 107.665 574.509 106.369V106.369ZM451.062 144.457C453.438 144.289 449.994 145.753 451.062 144.457V144.457ZM460.24 143.918C462.198 145.022 458.753 146.098 459.688 144.237C459.842 144.098 460.012 143.984 460.24 143.918ZM575.521 109.285C577.304 109.189 574.723 111.253 575.362 109.46C575.374 109.381 575.462 109.331 575.521 109.285ZM769.759 52.9676C772.862 52.7976 774.962 57.2623 771.18 57.0539C767.457 57.2273 766.898 53.9217 769.759 52.9676ZM540.785 125.33C543.429 124.639 541.888 129.241 539.743 126.71C539.76 126.142 540.159 125.582 540.785 125.33ZM492.248 140.747C494.417 141.012 491.365 142.244 492.248 140.747V140.747ZM531.123 129.11C532.92 128.472 534.555 131.326 531.776 131.297C529.881 132.29 529.756 129.332 531.123 129.11ZM499.305 140.696C501.375 140.569 498.148 142.334 499.305 140.696V140.696ZM483.982 147.606C485.118 148.713 483.744 149.092 483.982 147.606V147.606ZM798.422 53.2418C802.814 53.3215 806.932 55.7312 807.625 59.3418C808.728 61.8564 803.11 60.4703 801.406 60.3824C798.753 60.0111 794.393 58.695 796.83 56.2848C797.251 55.2336 797.556 54.0355 798.422 53.2418L798.422 53.2418ZM566.296 124.07C568.465 124.335 565.413 125.567 566.296 124.07V124.07ZM788.1 58.7941C791.279 57.4231 796.103 60.7454 793.595 63.172C791.759 67.2765 782.725 61.3646 787.442 59.0938C787.656 58.9909 787.856 58.8623 788.1 58.7938L788.1 58.7941ZM773.707 63.3685C776.844 63.0241 782.837 61.5253 783.976 65.4934C784.311 67.515 789.072 67.3729 788.176 69.2986C785.093 70.3867 782.133 66.8978 779.041 66.3491C778.084 64.0273 772.643 65.8127 773.706 63.3684L773.707 63.3685ZM565.863 127.853C569.157 127.425 563.23 129.182 565.863 127.853V127.853ZM477.026 155.161C479.434 154.573 478.184 156.379 477.026 155.161V155.161ZM507.529 148.512C509.905 148.345 506.461 149.808 507.529 148.512V148.512ZM826.094 54.6019C830.63 55.1065 835.151 53.6117 839.631 55.6133C841.352 55.9953 843.145 53.7639 844.49 55.0592C842.83 56.322 839.685 56.9964 840.748 59.5631C841.037 63.5105 837.445 66.7991 833.589 68.3713C830.806 67.5269 827.086 69.9972 824.896 68.307C824.025 66.4887 820.746 66.4066 821.298 64.1173C820.766 60.7708 821.904 57.3085 825.435 55.6384C825.705 55.3425 825.781 54.7538 826.094 54.6023L826.094 54.6019ZM766.709 73.9036C772.771 71.9877 780.274 77.5947 779.62 82.5114C780.613 84.6893 777.588 85.4007 777.623 87.021C772.283 87.2787 765.042 86.745 761.834 82.3768C761.883 79.762 759.673 75.9505 763.861 74.8647C764.798 74.5266 765.746 74.2056 766.709 73.9034L766.709 73.9036ZM796.856 66.6269C799.878 66.7891 796.578 70.7102 795.73 67.3728C795.745 66.9698 796.446 66.8105 796.856 66.6269ZM467.351 167.925C466.513 169.323 466.194 168.446 467.351 167.925V167.925ZM910.419 34.289C914.113 33.3386 916.674 39.6388 911.902 38.8388C908.947 38.2997 907.722 35.2555 910.419 34.289ZM553.342 142.187C553.447 142.344 553.241 142.159 553.342 142.187V142.187ZM782.469 73.4319C782.151 74.3206 780.099 74.9475 782.469 73.4319V73.4319ZM459.561 171.215C459.555 172.297 456.263 174.143 458.211 172.131C458.474 171.931 459.414 170.959 459.561 171.215ZM891.954 41.5388C894.337 42.2751 889.86 43.6454 891.741 41.6792C891.845 41.6602 891.89 41.5815 891.954 41.5388ZM857.713 52.5123C860.691 50.7573 864.415 54.2916 862.456 56.3063C861.567 59.5402 854.096 56.4481 856.076 53.641C856.372 53.0944 857.015 52.7293 857.713 52.5125L857.713 52.5123ZM505.73 162.652C507.841 162.04 511.321 164.501 508.247 165.393C507.008 166.677 503.2 166.513 504.053 164.275C504.252 163.523 504.812 162.925 505.73 162.652ZM874.822 51.2527C878.027 51.2048 885.006 52.9159 883.105 56.2858C882.209 59.6317 876.826 58.1391 873.665 57.0307C871.728 57.9003 867.861 58.2571 866.369 56.4434C865.951 53.9385 868.33 52.5978 871.482 53.2252C873.404 53.2176 874.038 52.2222 874.822 51.2527L874.822 51.2527ZM787.445 80.0216C790.297 79.3654 791.71 83.3077 788.445 82.6875C787.209 82.291 786.286 80.5353 787.445 80.0216ZM893.618 48.114C896.309 47.4481 899.485 51.5739 898.45 52.9206C895.868 53.1645 891.638 49.576 893.618 48.114ZM764.487 87.3598C764.592 87.5169 764.386 87.332 764.487 87.3598V87.3598ZM848.272 62.7706C850.577 62.0262 850.686 64.8506 848.62 64.5428C847.788 64.0735 847.128 63.0885 848.272 62.7706ZM503.755 168.17C506.004 167.745 504.87 171.355 503.203 169.275C502.382 168.817 503.173 168.254 503.755 168.17ZM786.513 84.9454C788.488 84.5946 790.523 87.4699 790.779 88.5278C788.961 90.1415 782.354 88.3841 784.924 86.0085C785.286 85.5381 785.9 85.2132 786.513 84.9454ZM575.99 148.793C578.742 148.136 580.315 151.515 576.526 150.712C574.882 150.555 574.753 149.132 575.99 148.793ZM525.88 164.001C527.865 163.332 526.261 165.145 525.818 164.045L525.855 164.008L525.88 164.001ZM582.901 152.44C583.996 151.819 586.363 152.614 584.372 153.416C583.604 154.247 582.588 152.923 582.901 152.44ZM597.699 148.2C604.12 148.225 612.582 152.499 612.202 158.153C613.051 161.598 607.338 162.316 603.979 162.259C598.392 161.417 592.604 157.862 593.037 153.209C593.107 150.97 595.152 149.212 597.698 148.199L597.699 148.2ZM875.278 64.8643C877.448 65.129 874.395 66.3611 875.278 64.8643V64.8643ZM773.866 96.2984C778.207 94.81 784.005 101.009 787.04 97.0388C787.614 93.9743 792.759 95.2248 795.688 96.4824C798.805 98.1456 798.797 101.543 799.79 103.742C798.88 105.203 795.151 102.467 793.353 103.529C791.029 104.897 788.314 101.824 786.31 103.601C781.766 104.666 773.261 104.119 771.78 99.2877C771.732 98.0362 772.477 96.8411 773.866 96.2985L773.866 96.2984ZM855.292 71.838C857.852 70.3671 859.847 75.199 856.153 74.2925C855.023 73.8554 854.129 72.2737 855.292 71.838ZM506.727 177.953C509.352 178.112 507.316 180.157 506.333 178.604C506.299 178.335 506.468 178.091 506.727 177.953ZM577.31 158.212C581.129 158.361 587.618 161.816 584.393 164.851C581.81 168.619 572.324 162.351 576.055 159.225C576.444 158.877 576.717 158.358 577.31 158.212L577.31 158.212ZM546.947 167.38C550.6 167.628 546.371 169.59 546.947 167.38V167.38ZM626.23 147.575C629.221 147.461 625.922 150.387 626.23 147.575V147.575ZM769.757 105.657C772.099 105.296 769.722 107.194 769.112 105.928C769.344 105.859 769.517 105.714 769.757 105.657ZM905.347 68.8748C905.581 69.8501 904.981 69.127 905.347 68.8748V68.8748ZM804.676 101.429C805.502 101.452 804.09 101.935 804.676 101.429V101.429ZM599.104 163.757C601.512 163.17 600.262 164.975 599.104 163.757V163.757ZM640.365 151.983C640.81 152.776 640.39 152.442 640.365 151.983V151.983ZM631.472 155.632C634.322 155.363 637.611 157.46 640.444 156.12C643.031 155.802 646.064 153.861 647.003 152.87C647.019 157.236 638.365 155.836 636.792 159.607C636.255 162.601 630.485 162.625 628.199 160.477C628.132 158.543 629.86 156.794 631.472 155.632ZM545.195 183.206C548.998 181.609 553.579 185.943 550.94 188.423C549.517 192.402 540.577 188.258 543.052 184.817C543.466 184.054 544.229 183.538 545.195 183.206L545.195 183.206ZM659.977 150.171C661.934 151.275 658.489 152.351 659.424 150.49C659.579 150.351 659.748 150.237 659.977 150.171ZM814.298 105.627C815.75 104.972 819.976 106.051 816.935 106.885C816.132 108.298 814.684 110.13 812.566 107.951C811.978 106.923 813.228 105.972 814.298 105.627L814.298 105.627ZM656.374 154.1C658.705 152.849 660.463 155.432 658.833 156.706C657.433 158.318 652.897 154.843 656.374 154.1ZM787.739 115.879C790.749 115.479 791.098 121.215 787.285 118.426C786.242 117.737 786.866 116.248 787.739 115.879ZM645.903 159.291C650.279 159.357 652.39 163.261 651.751 166.048C652.197 169.889 645.08 172.035 641.24 169.654C640.541 166.825 637.932 162.517 642.75 161.638C644.055 161.053 644.751 159.974 645.903 159.291L645.903 159.291ZM753.904 126.679C756.543 126.075 756.665 125.453 755.129 126.867C755.536 127.252 752.121 126.756 753.904 126.679ZM793.717 114.657C796.544 115.456 793.089 116.964 793.314 114.88C793.438 114.798 793.567 114.71 793.717 114.657ZM802.883 113.361C806.168 112.912 808.859 114.784 811.26 116.412C813.925 116.577 810.461 118.56 812.349 119.812C812.466 121.323 808.825 122.744 812.601 123.795C817.758 124.471 820.558 127.17 822.017 131.045C824.52 134.947 828.656 140.685 823.227 143.265C821.573 144.024 822.942 145.867 822.415 146.656C820.994 148.96 817.501 145.364 815.718 144.112C814.552 143.104 813.889 143.184 814.653 141.948C814.447 140.04 811.993 138.791 812.486 136.919C810.924 133.322 806.898 129.524 809.564 126.076C811.28 122.599 803.741 123.494 801.863 120.594C799.163 118.181 799.668 114.546 802.882 113.361L802.883 113.361ZM778.648 123.292C780.381 122.626 782.05 125.092 779.415 124.126C779.124 123.928 778.588 123.543 778.648 123.292ZM818.318 112.531C818.081 113.133 817.612 112.91 818.318 112.531V112.531ZM832.951 108.873C834.513 109.159 832.848 110.429 832.951 108.873V108.873ZM773.021 129.43C775.778 130.662 777.188 134.397 777.397 136.734C777.166 137.79 774.363 138.031 773.706 137.899C772.695 135.388 771.146 131.451 773.021 129.43L773.021 129.43ZM752.704 136.783C754.417 136.646 752.797 140.056 752.805 137.767C752.649 137.437 752.169 136.964 752.704 136.783ZM760.855 134.322C763.024 134.586 759.972 135.818 760.855 134.322V134.322ZM789.602 126.453C791.373 126.708 791.563 130.749 794.53 130.85C796.783 131.684 796.975 134.085 794.278 133.564C791.705 133.381 787.039 132.415 786.594 130.63C787.245 129.11 787.914 127.397 789.602 126.453L789.602 126.453ZM793.448 125.291C796.006 124.699 793.216 128.344 792.935 125.624C793.04 125.469 793.241 125.362 793.448 125.291ZM756.961 136.335C758.693 135.669 760.362 138.135 757.727 137.169C757.436 136.971 756.9 136.586 756.961 136.335ZM677.921 160.48C678.439 161.528 676.747 160.969 677.921 160.48V160.48ZM687.11 159.126C689.422 158.464 688.13 161.527 687.208 159.782C687.186 159.6 686.737 159.188 687.11 159.126ZM618.159 180.733C620.567 180.145 619.317 181.951 618.159 180.733V180.733ZM512.963 212.538C515.297 213.099 511.397 214.215 512.963 212.538V212.538ZM842.3 113.853C847.474 111.849 851.554 120.094 845.765 120.797C839.894 122.58 837.635 115.011 842.3 113.853ZM759.746 139.567C761.25 140.624 759.281 141.677 758.972 140.105C759.123 139.877 759.416 139.699 759.746 139.567ZM675.571 166.151C678.004 166.93 679.352 168.556 677.919 170.16C678.416 172.528 677.906 174.584 675.257 175.835C671.53 179.293 674.455 185.076 671.76 189.067C671.475 190.784 669.67 193.085 667.26 190.857C666.391 189.58 665.313 187.986 663.172 189.022C660.065 190.115 661.728 186.094 663.796 187.794C666.211 190.257 667.282 186.343 667.482 185.006C668.334 182.896 672.486 180.36 669.043 177.99C669.561 177.792 670.837 175.423 669.22 174.056C668.09 172.847 665.758 173.767 667.217 171.768C667.977 168.739 671.066 166.939 674.191 165.452L675.02 165.872L675.571 166.151ZM859.063 109.856C860.59 110.08 859.097 110.426 859.063 109.856V109.856ZM526.745 210.507C528.605 211.392 526.271 212.022 526.745 210.507V210.507ZM880.696 103.984C881.719 103.676 885.849 103.208 885.445 104.046C884.831 104.52 879.888 104.813 880.696 103.984ZM752.979 143.005C753.805 143.028 752.393 143.511 752.979 143.005V143.005ZM684.32 163.991C686.856 163.827 686.596 166.997 684.597 165.658C684.356 165.179 683.872 164.315 684.32 163.991ZM884.589 106.816C886.911 105.912 891.259 108.363 890.885 110.141C889.084 111.875 882.563 112.029 883.041 108.679C883.118 107.924 883.669 107.162 884.589 106.816L884.589 106.816ZM752.092 147.535C751.942 147.674 751.838 147.517 752.092 147.535V147.535ZM733.223 153.613C735.422 153.686 733.708 156.182 732.724 154.474C732.638 154.12 732.849 153.768 733.223 153.613ZM759.775 146.813C762.586 146.52 765.459 149.457 767.719 149.488C768.465 151.963 770.547 150.141 771.536 149.299C774.215 149.534 775.675 153.801 778.357 152.77C776.955 154.274 779.075 156.203 780.511 156.254C779.491 157.797 780.718 159.972 778.487 161C777.081 162.945 779.973 166.074 780.029 167.486C777.329 166.868 770.211 165.492 771.121 169.034C772.765 170.434 776.218 169.95 776.775 172.451C777.78 174.752 772.901 171.894 771.858 173.149C769.734 173.211 765.3 175.273 763.943 173.104C766.62 172.647 769.141 171.068 766.423 168.677C763.957 166.025 758.638 165.363 758.257 161.604C756.475 158.261 760.16 156.52 763.884 157.546C767.175 155.626 765.151 150.634 762.518 148.141C761.82 147.722 757.771 147.911 759.775 146.813L759.775 146.813ZM742.264 152.126C744.201 152.096 747.759 154.993 745.031 155.476C743.379 155.101 741.809 153.284 742.264 152.126ZM781.028 140.598C784.019 140.484 780.72 143.41 781.028 140.598V140.598ZM795.912 137.55C798.616 137.375 801.761 138.967 804.625 138.293C808.373 137.026 808.45 142.534 812.268 143.19C809.467 143.635 812.2 146.216 812.448 147.017C810.803 146.152 806.443 145.801 808.74 148.111C807.079 147.085 805.261 149.172 803.525 147.251C801.377 146.42 801.098 148.834 799.443 147.316C796.62 148.535 800.373 152.24 797.318 153.666C795.569 154.597 796.832 158.728 793.848 157.149C790.992 158.283 786.549 155.445 786.596 153.073C788.182 151.802 793.331 150.661 789.623 148.227C785.944 147.278 789.132 143.722 791.317 143.352C795.375 143.364 791.687 139.625 794.418 138.433C794.816 138.058 795.338 137.765 795.912 137.551L795.912 137.55ZM655.262 180.122C657.218 178.883 660.411 180.854 658.677 182.465C656.17 183.481 658.64 187.702 655.422 187.659C652.758 187.013 653.791 185.602 655.89 185.412C658.838 184.085 652.581 181.254 655.262 180.122L655.262 180.122ZM769.005 146.487C770.567 146.586 767.597 147.123 769.005 146.487V146.487ZM879.512 114.387C882.357 112.861 887.549 116.266 884.164 118.183C882.42 119.346 878.026 118.602 877.237 116.723C877.645 115.753 878.243 114.783 879.512 114.387L879.512 114.387ZM688.226 173.314C690.513 174.766 686.688 177.345 686.69 174.64C686.91 174.033 687.474 173.54 688.226 173.314ZM907.538 107.548C909.183 108.014 905.887 109.874 907.168 107.913C907.274 107.787 907.349 107.617 907.538 107.548ZM605.331 199.156C605.182 199.296 605.078 199.139 605.331 199.156V199.156ZM888.857 113.772C889.848 114.126 888.57 113.818 888.857 113.772V113.772ZM730.123 163.098C729.973 163.238 729.869 163.081 730.123 163.098V163.098ZM634.732 192.689C636.982 192.754 632.798 193.974 634.63 192.719L634.732 192.689ZM862.983 123.944C866.143 123.655 862.3 127.918 862.85 124.897C862.903 124.586 862.698 124.145 862.983 123.944ZM902.747 111.988C904.77 111.598 906.569 113.768 903.77 113.81C902.851 113.629 902.21 112.55 902.747 111.988ZM835.538 132.307C839.115 131.423 840.354 136.089 836.676 135.642C836.096 134.753 834.734 133.048 835.538 132.307ZM605.451 202.342C606.468 202.698 604.417 203.487 605.451 202.342V202.342ZM731.17 165.471C733.848 166.184 729.046 167.239 730.515 165.821C730.707 165.695 730.882 165.504 731.17 165.471ZM872.467 123.414C875.682 121.952 880.688 127.429 876.207 127.586C873.541 127.485 869.504 125.534 872.101 123.6C872.262 123.582 872.318 123.443 872.467 123.414L872.467 123.414ZM753.331 161.874C755.316 161.206 753.712 163.018 753.269 161.918L753.305 161.882L753.331 161.874ZM687.127 182.55C689.675 182.967 686.304 183.585 687.127 182.55V182.55ZM890.567 121.348C892.844 120.674 898.135 124.57 894.031 124.919C891.507 125.362 886.419 123.525 890.567 121.348ZM748.684 164.596C749.509 164.619 748.098 165.102 748.684 164.596V164.596ZM736.436 169.411C737.836 169.962 737.635 172.239 735.697 170.649C733.943 169.748 735.882 170.027 736.436 169.411ZM752.963 165.105C755.291 165.793 752.605 167.632 752.235 165.807C752.246 165.483 752.611 165.22 752.963 165.105ZM809.034 148.327C810.279 149.629 815.009 150.27 814.274 151.995C812.18 152.69 809.071 150.956 809.719 149.084C809.573 148.813 809.194 148.466 809.034 148.327L809.034 148.327ZM839.115 139.472C840.825 139.942 840.664 143.44 839.184 141.607C839.024 140.947 838.836 139.94 839.115 139.472ZM784.318 157.667C786.778 158.011 789.28 162.049 785.349 161.211C781.222 161.564 783.339 159.02 784.318 157.667ZM849.621 138.633C851.788 138.052 855.904 139.84 856.162 141.681C854.88 143.618 855.119 146.346 856.734 148.18C855.307 149.201 856.845 146.321 854.464 146.227C851.344 145.486 847.328 145.265 847.035 141.976C846.544 140.454 848.206 139.279 849.621 138.633L849.621 138.633ZM907.285 121.348C910.97 122.033 905.546 123.592 907.285 121.348V121.348ZM887.91 128.416C890.723 127.599 892.129 130.888 888.507 130.519C887.448 130.234 886.124 128.536 887.91 128.416ZM683.705 191.193C686.544 191.552 681.877 193.696 683.058 191.693C683.208 191.481 683.436 191.31 683.705 191.193ZM833.175 147.404C833.026 147.543 832.922 147.387 833.175 147.404V147.404ZM881.227 132.869C883.67 131.987 883.217 135.311 880.664 134.282C878.561 134.194 880.461 133.08 881.227 132.869ZM863.248 139.922C865.683 139.408 868.148 142.428 864.798 142.726C861.896 143.876 861.004 141.592 863.248 139.922ZM798.725 159.582C800.523 159.414 800.382 162.921 798.883 160.651C798.699 160.308 798.5 159.874 798.725 159.582ZM842.534 146.81C843.36 146.833 841.948 147.316 842.534 146.81V146.81ZM671.228 198.944C674.012 199.944 671.637 200.792 671.228 198.944V198.944ZM680.134 196.838C683.032 196.553 681.884 201.639 680.071 198.404C679.7 197.9 679.316 197.064 680.134 196.838ZM785.156 166.648C787.872 168.227 783.746 170.602 787.543 171.685C791.023 173.882 795.343 172.048 798.746 173.604C801.258 175.332 799.179 178.569 803.046 179.409C805.752 179.709 808.135 181.431 806.685 183.383C804.225 187.285 808.898 185.816 811.702 186.206C814.142 187.696 814.663 189.89 811.062 189.672C809.308 190.033 805.486 187.622 806.472 190.449C806.714 191.163 809.757 194.939 807.832 194.351C805.41 191.247 800.956 192.054 798.42 193.844C797.085 194.629 797.036 196.379 794.973 194.454C791.784 192.921 789.93 190.182 791.135 187.825C790.18 185.212 788.482 182.616 789.973 180.16C790.359 177.008 784.534 175.818 781.794 176.668C783.707 175 778.777 171.768 782.016 170.538C784.277 170.493 783.475 165.08 785.156 166.647L785.156 166.648ZM895.281 133.09C897.907 132.945 897.217 136.062 895.472 133.794C895.366 133.585 895.191 133.253 895.281 133.09ZM730.466 182.883C732.409 183.041 733.661 185.568 730.971 185.216C729.725 185.769 731.708 188.384 729.13 186.914C727.076 185.747 727.484 184.511 729.478 184.069C729.97 183.771 730.209 183.295 730.466 182.883L730.466 182.883ZM925.247 125.589C925.776 125.691 925.013 125.93 925.247 125.589V125.589ZM597.381 225.073C599.859 224.503 601.873 228.88 598.4 227.074C597.523 226.762 596.213 225.422 597.381 225.073ZM810.688 160.714C812.788 160.237 813.171 163.439 810.899 161.817C810.509 161.499 810.186 160.941 810.688 160.714ZM661.813 205.82C665.84 207.442 661.088 208.568 661.813 205.82V205.82ZM815.694 159.684C816.408 160.066 820.588 163.309 817.848 161.647C817.169 161.328 815.051 159.366 815.694 159.684ZM744.454 181.018C746.886 180.159 747.72 182.474 748.964 183.537C751.583 183.964 754.501 181.872 756.67 184.559C760.946 187.244 753.615 186.88 751.247 187.541C749.657 187.305 745.756 188.04 748.628 189.448C750.731 189.823 751.331 191.421 749.063 191.397C746.021 191.451 741.197 189.108 743.535 186.648C746.87 185.634 741.76 182.183 744.454 181.018L744.454 181.018ZM890.312 137.305C892.1 136.52 897.862 138.296 895.124 139.911C892.931 142.106 888.282 139.982 889.998 137.476C890.105 137.422 890.188 137.338 890.312 137.305L890.312 137.305ZM862.697 145.821C864.674 147.06 862.384 148.264 862.697 145.821V145.821ZM913.49 132.057C915.876 131.937 914.522 134.615 913.14 132.822C913.051 132.502 913.162 132.211 913.49 132.057ZM766.918 177.178C768.522 178.942 772.923 178.243 772.921 180.845C771.576 181.527 767.955 182.086 767.045 180.97C768.635 179.431 769.714 179.387 766.918 177.178L766.918 177.178ZM907.983 134.633C910.173 135.062 912.989 138.673 911.891 139.845C909.363 140.037 905.853 135.632 907.983 134.633ZM827.441 159.004C829.949 158.21 832.303 162.81 828.635 161.408C826.854 161.088 825.453 159.727 827.441 159.004ZM875.664 144.544C879.12 144.779 880.107 148.952 877.862 149.943C874.564 149.534 873.444 145.812 875.664 144.544ZM849.398 153.16C852.383 152.208 854.53 154.314 854.018 156.585C852.116 158.46 846.54 155.036 849.398 153.16ZM633.108 218.547C636.099 218.432 632.799 221.358 633.108 218.547V218.547ZM806.725 166.122C809.101 165.954 805.657 167.418 806.725 166.122V166.122ZM801.956 168.982C804.262 168.622 802.018 171.753 801.292 169.411C801.409 169.192 801.695 169.085 801.956 168.982ZM678.813 206.978C683.023 206.545 684.172 212.588 679.162 211.337C677.021 210.262 676.598 207.72 678.813 206.978ZM820.295 167.503C822.304 166.776 824.355 170.054 821.259 169.191C820.443 168.978 819.217 167.862 820.295 167.503ZM659.687 216.076C662.312 215.901 661.337 218.206 659.302 217.157C658.644 216.773 659.195 216.222 659.687 216.076ZM938.594 131.934C941.421 132.073 938.823 133.618 938.594 131.934V131.934ZM813.711 170.303C815.525 169.924 815.34 173.596 813.233 171.843C811.819 171.292 812.82 170.471 813.711 170.303ZM845.122 161.148C845.651 161.25 844.888 161.489 845.122 161.148V161.148ZM926.565 138.002C930.73 137.957 924.223 140.453 926.489 138.025L926.565 138.002ZM764.679 187.138C767.925 186.474 765.575 191.134 763.961 188.547C763.603 187.925 763.882 187.328 764.679 187.138ZM774.378 184.616C776.782 184.545 779.57 185.648 781.606 184.361C784.851 184.168 786.881 186.639 785.274 188.657C784.481 189.383 781.678 191.331 780.954 190.164C780.31 186.949 776.142 189.594 774.622 188.956C774.014 187.644 772.735 185.503 774.378 184.616L774.378 184.616ZM740.878 195.416C743.39 195.11 746.738 197.604 745.009 198.887C743.655 197.98 740.939 196.269 740.878 195.416ZM896.767 148.395C901.333 146.998 907.328 154.695 901.133 154.991C897.137 155.72 892.484 151.612 895.434 149.153C895.777 148.795 896.225 148.583 896.767 148.395L896.767 148.395ZM756.158 191.03C758.47 190.369 757.178 193.431 756.256 191.686C756.234 191.504 755.785 191.092 756.158 191.03ZM839.16 166.728C841.52 165.975 844.153 168.652 846.261 167.298C848.367 168.797 843.782 167.076 843.719 168.675C843.343 170.872 838.254 171.385 836.949 169.299C837.092 168.174 837.841 167.148 839.16 166.728L839.16 166.728ZM864.138 159.491C867.773 158.163 869.931 165.041 865.565 163.448C862.6 162.812 861.363 160.504 864.138 159.491ZM849.718 164.301C851.151 163.777 852.783 167.342 850.161 165.664C849.347 165.319 848.448 164.562 849.718 164.301ZM856.308 162.438C859.333 162.936 861.356 166.79 856.871 164.627C855.24 164.381 856.058 163.1 856.308 162.438ZM751.746 194.012C755.031 193.663 760.27 195.474 762.09 192.74C763.593 194.162 764.865 191.695 766.391 193.42C768.405 194.285 770.85 192.008 771.329 194.415C772.246 195.484 776.084 195.99 774.352 197.459C771.316 197.285 768.189 201.754 772.84 202.101C778.072 201.732 779.371 195.789 785.662 197.646C788.392 197.8 790.1 198.975 791.702 200.49C794.088 200.978 797.45 203.139 795.585 204.696C792.083 203.943 792.561 207.452 794.007 209.053C790.582 207.719 791.793 213.711 794.952 213.436C796.873 214.236 799.1 218.252 795.962 217.316C792.153 216.154 788.046 216.168 784.106 215.011C782.1 215.596 782.915 213.505 780.515 213.28C778.353 212.03 776.028 212.985 775.508 213.98C777.391 212.911 776.143 208.628 772.973 209.874C771.177 210.452 769.313 207.392 767.151 207.219C764.75 206.55 761.645 204.688 761.72 202.847C766.349 202.227 759.651 194.748 757.558 198.497C758.836 200.734 755.243 200.799 753.457 201.537C753.861 199.117 751.918 196.639 750.907 194.544C751.086 194.296 751.413 194.126 751.746 194.012L751.746 194.012ZM908.894 148.386C910.327 149.301 907.254 150.37 908.636 148.642C908.698 148.551 908.768 148.428 908.894 148.386ZM601.178 241.785C602.841 242.006 602.144 244.248 601.12 242.437C601.045 242.227 600.952 241.927 601.178 241.785ZM931.939 142.341C931.702 142.943 931.233 142.72 931.939 142.341V142.341ZM774.899 191.967C776.648 191.575 775.799 192.935 774.626 192.202C774.658 192.117 774.793 192.03 774.899 191.967ZM856.272 167.7C858.382 167.371 858.484 170.39 856.575 168.573C856.382 168.324 856.066 167.93 856.272 167.7ZM813.753 182.467C816.668 182.195 815.744 184.457 813.289 184.028C812.616 183.731 813.145 182.611 813.753 182.467ZM864.62 167.387C866.783 167.978 870.389 168.434 871.749 169.8C869.577 170.709 865.417 168.646 864.62 167.387ZM850.718 172.472C852.792 173.077 851.866 175.337 850.213 173.741C849.93 173.271 850.152 172.628 850.718 172.472ZM675.612 226.666C677.925 227.91 672.126 228.644 674.684 227.25C674.964 227.021 675.242 226.815 675.612 226.666ZM901.653 158.512C903.962 158.102 904.483 161.771 904.084 162.877C902.92 164.602 896.774 163.939 898.896 161.273C899.538 160.207 900.288 159.08 901.653 158.512L901.653 158.512ZM929.931 150.303C933.151 148.482 935.542 152.741 935.299 154.72C935.118 157.644 942.001 156.53 942.236 156.38C942.123 159.205 948.509 159.844 947.842 162.957C947.699 165.664 951.158 166.852 952.987 168.836C953.898 169.976 959.063 170.044 957.808 171.363C955.523 172.764 953.13 169.036 950.298 169.115C947.153 167.821 944.41 170.262 947.186 172.262C945.503 171.194 941.077 170.197 941.422 172.835C940.893 174.253 939.004 171.209 937.491 171.283C935.206 169.82 932.843 170.915 934.281 172.759C932.032 174.6 928.457 172.828 928.462 170.432C931.045 169.413 931.533 166.976 929.168 164.943C928.171 163.048 926.263 160.732 928.74 159.77C929.23 157.624 935.367 156.286 931 153.812C928.707 153.646 927.58 150.69 929.931 150.304L929.931 150.303ZM840.032 177.576C843.556 175.98 848.059 178.184 849.223 181.396C850.136 182.83 853.413 187.335 849.275 186.784C848.245 185.634 847.704 183.03 845.466 184.586C841.523 184.146 839.361 180.153 839.715 177.697L839.904 177.614L840.032 177.576ZM667.909 229.854C671.706 228.34 673.921 233.035 670.983 234.406C667.661 234.639 664.659 231.038 667.909 229.854ZM644.418 237.075C646.738 237.18 647.103 238.254 644.506 238.316C643.2 238.634 644.082 237.331 644.418 237.075ZM787.118 194.315C788.978 195.467 786.764 195.531 787.118 194.315V194.315ZM853.82 176.279C856.528 176.518 854.022 178.461 853.368 176.796C853.348 176.562 853.522 176.3 853.82 176.279ZM884.818 167.655C886.317 166.457 889.946 168.291 888.628 169.624C887.266 170.749 882.714 168.877 884.818 167.655ZM758.685 206.122C761.027 205.23 763.312 208.88 762.904 210.049C760.395 210.422 763.999 214.171 761.352 212.598C758.84 212.655 753.89 212.179 755.364 209.231C755.976 207.882 757.176 206.875 758.685 206.122L758.685 206.122ZM828.19 185.769C829.65 187.882 826.23 186.776 828.19 185.769V185.769ZM824.495 187.113C826.406 188.865 826.913 191.613 823.462 191.509C820.81 190.737 821.917 188.297 824.049 188.009C824.383 187.818 824.394 187.338 824.495 187.113L824.495 187.113ZM868.19 174.401C873.518 172.388 881.375 178.522 877.523 182.313C873.106 186.234 862.152 179.544 866.453 175.331C866.93 174.92 867.513 174.635 868.19 174.401L868.19 174.401ZM696.288 226.967C699.83 228.579 700.96 232.811 698.107 234.333C694.118 234.136 694.531 228.393 696.288 226.967ZM924.783 158.682C926.647 160.186 922.415 159.304 924.783 158.682V158.682ZM709.652 224.023C711.214 224.308 709.549 225.578 709.652 224.023V224.023ZM751.935 213.056C754.616 212.491 754.266 215.681 751.838 214.202C751.321 213.792 751.32 213.269 751.935 213.056ZM800.894 199.338C802.792 197.797 806.681 199.352 805.568 201.504C804.429 203.377 800.769 201.123 798.885 201.289C797.176 199.952 800.05 199.805 800.894 199.338L800.894 199.338ZM894.225 171.435C896.111 170.804 898.04 173.349 895.289 173.042C894.392 172.916 893.778 171.846 894.225 171.435ZM908.94 168.362C911.726 167.304 912.153 172.193 909.3 169.877C908.709 169.401 907.977 168.676 908.94 168.362ZM763.024 215.263C766.084 214.231 768.338 216.277 768.585 218.632C770.275 220.243 766.312 223.128 769.893 223.285C771.617 222.038 775.53 223.399 773.605 225.107C771.844 226.363 768.159 223.528 766.061 222.945C764.758 220.621 763.196 217.761 761.147 215.475C761.773 215.404 762.398 215.334 763.024 215.263L763.024 215.263ZM819.655 198.087C823.006 197.499 823.225 201.514 819.954 200.432C819.046 199.868 818.62 198.469 819.655 198.087ZM850.066 189.361C853.328 189.608 849.858 192.49 849.745 189.661C849.825 189.532 849.919 189.435 850.066 189.361ZM758.154 218.764C758.004 218.903 757.9 218.746 758.154 218.764V218.764ZM808.754 203.789C810.281 204.012 808.788 204.359 808.754 203.789V203.789ZM753.828 221.972C754.346 223.02 752.654 222.461 753.828 221.972V221.972ZM692.654 240.368C693.203 241.358 689.674 241.25 690.83 242.923C691.549 243.728 691.289 245.512 690.604 243.828C690.006 241.99 690.88 241.247 692.654 240.368ZM794.048 209.777L794.129 209.854L794.048 209.777ZM906.978 177.681C907.803 177.704 906.392 178.186 906.978 177.681V177.681ZM789.265 220.277C790.868 220.461 789.336 221.776 789.265 220.277V220.277ZM778.283 224.05C778.134 224.189 778.03 224.032 778.283 224.05V224.05Z" fill="#FF0E0E"/>
</g>
</g>
<defs>
<filter id="filter0_f_57_1032" x="309.125" y="-89.5742" width="652.879" height="338.102" filterUnits="userSpaceOnUse" color-interpolation-filters="sRGB">
<feFlood flood-opacity="0" result="BackgroundImageFix"/>
<feBlend mode="normal" in="SourceGraphic" in2="BackgroundImageFix" result="shape"/>
<feGaussianBlur stdDeviation="2" result="effect1_foregroundBlur_57_1032"/>
</filter>
<clipPath id="clip0_57_1032">
<rect width="832" height="92" fill="white"/>
</clipPath>
</defs>
</svg>
