<svg width="200" height="200" viewBox="0 0 200 200" fill="none" xmlns="http://www.w3.org/2000/svg">
<path d="M99.6133 2.73438C44.6055 2.73438 0 47.332 0 102.348C0 146.36 28.5422 183.699 68.1219 196.871C73.1 197.793 74.9281 194.71 74.9281 192.079C74.9281 189.704 74.8352 181.856 74.793 173.533C47.0797 179.559 41.232 161.78 41.232 161.78C36.7008 150.266 30.1719 147.205 30.1719 147.205C21.1344 141.022 30.8531 141.148 30.8531 141.148C40.8563 141.852 46.1234 151.414 46.1234 151.414C55.0078 166.643 69.4266 162.24 75.1109 159.695C76.0047 153.256 78.5867 148.863 81.4352 146.375C59.3102 143.855 36.0508 135.314 36.0508 97.1453C36.0508 86.2703 39.9422 77.3836 46.3148 70.4078C45.2805 67.8984 41.8711 57.7672 47.2797 44.0461C47.2797 44.0461 55.6445 41.3687 74.6805 54.257C82.6258 52.0492 91.1477 50.943 99.6133 50.9055C108.079 50.943 116.607 52.0492 124.568 54.257C143.581 41.3687 151.934 44.0461 151.934 44.0461C157.356 57.7672 153.945 67.8984 152.911 70.4078C159.298 77.3836 163.163 86.2695 163.163 97.1453C163.163 135.405 139.859 143.83 117.678 146.295C121.251 149.387 124.434 155.449 124.434 164.742C124.434 178.07 124.319 188.798 124.319 192.079C124.319 194.73 126.112 197.836 131.162 196.858C170.72 183.671 199.226 146.345 199.226 102.348C199.226 47.332 154.627 2.73438 99.6133 2.73438Z" fill="black"/>
<path d="M37.3086 144.636C37.0899 145.131 36.3102 145.279 35.6016 144.94C34.8789 144.615 34.4727 143.94 34.7071 143.443C34.9219 142.934 35.7016 142.792 36.4227 143.134C37.1469 143.458 37.5594 144.14 37.3086 144.636M42.2086 149.008C41.7336 149.449 40.8047 149.244 40.1743 148.548C39.5227 147.854 39.4008 146.926 39.8829 146.478C40.3727 146.038 41.2735 146.243 41.9266 146.939C42.5782 147.641 42.7047 148.564 42.2079 149.009M45.5704 154.602C44.9594 155.026 43.961 154.629 43.3446 153.743C42.7344 152.858 42.7344 151.795 43.3579 151.369C43.9766 150.943 44.9594 151.326 45.5844 152.205C46.1938 153.106 46.1938 154.168 45.5696 154.603M51.2547 161.081C50.7086 161.683 49.5461 161.522 48.6946 160.7C47.8243 159.897 47.5813 158.757 48.1289 158.154C48.6813 157.551 49.8508 157.721 50.7086 158.536C51.5735 159.337 51.8375 160.486 51.2555 161.081M58.6016 163.268C58.3618 164.048 57.2414 164.403 56.1133 164.072C54.9868 163.73 54.2493 162.816 54.4766 162.028C54.711 161.243 55.836 160.873 56.9727 161.228C58.0977 161.568 58.8368 162.475 58.6024 163.268M66.9641 164.196C66.9922 165.018 66.0352 165.699 64.8508 165.714C63.6594 165.74 62.6961 165.075 62.6836 164.267C62.6836 163.437 63.6188 162.762 64.8094 162.743C65.9938 162.719 66.9641 163.379 66.9641 164.196M75.1782 163.881C75.3203 164.683 74.4969 165.506 73.3211 165.725C72.1649 165.936 71.0946 165.441 70.9469 164.647C70.8032 163.825 71.6422 163.002 72.7961 162.789C73.9743 162.584 75.0282 163.066 75.1782 163.881" fill="black"/>
</svg>
