<svg width="575" height="177" viewBox="0 0 575 177" fill="none" xmlns="http://www.w3.org/2000/svg">
<path d="M280.919 0V176.997H0C12.7522 24.6722 53.177 66.3511 109.484 124.405C123.316 138.666 138.106 153.915 153.679 167.519C174.727 185.904 196.846 139.56 220.104 90.8264C239.564 50.053 259.822 7.60727 280.919 0Z" fill="url(#paint0_linear_57_714)"/>
<path d="M294.081 2.42908e-05V176.997H575C562.248 24.6722 521.823 66.3511 465.516 124.405C451.685 138.666 436.894 153.915 421.321 167.519C400.273 185.904 378.154 139.56 354.896 90.8264C335.436 50.0531 315.178 7.60736 294.081 2.42908e-05Z" fill="url(#paint1_linear_57_714)"/>
<ellipse rx="36.546" ry="27.0517" transform="matrix(0.997027 -0.0770562 0.37322 0.927743 159.936 87.5544)" fill="url(#paint2_linear_57_714)"/>
<ellipse rx="36.546" ry="27.0517" transform="matrix(0.997027 0.0770562 -0.373219 0.927743 414.13 88.5108)" fill="url(#paint3_linear_57_714)"/>
<defs>
<linearGradient id="paint0_linear_57_714" x1="4.28408e-06" y1="88.4986" x2="575" y2="88.4987" gradientUnits="userSpaceOnUse">
<stop stop-color="#DEA821"/>
<stop offset="1" stop-color="#CD2C2C"/>
</linearGradient>
<linearGradient id="paint1_linear_57_714" x1="4.28408e-06" y1="88.4986" x2="575" y2="88.4987" gradientUnits="userSpaceOnUse">
<stop stop-color="#DEA821"/>
<stop offset="1" stop-color="#CD2C2C"/>
</linearGradient>
<linearGradient id="paint2_linear_57_714" x1="5.44577e-07" y1="27.0517" x2="73.0919" y2="27.0517" gradientUnits="userSpaceOnUse">
<stop stop-color="#DEA821"/>
<stop offset="1" stop-color="#CD2C2C"/>
</linearGradient>
<linearGradient id="paint3_linear_57_714" x1="5.44577e-07" y1="27.0517" x2="73.0919" y2="27.0517" gradientUnits="userSpaceOnUse">
<stop stop-color="#DEA821"/>
<stop offset="1" stop-color="#CD2C2C"/>
</linearGradient>
</defs>
</svg>
