<svg width="271" height="163" viewBox="0 0 271 163" fill="none" xmlns="http://www.w3.org/2000/svg">
<g filter="url(#filter0_f_194_240)">
<path d="M4.69517 4C5.47636 4.50293 4.0426 5.45188 4 4.54309C4.10084 4.25315 4.38986 4.02591 4.69517 4ZM10.615 7.47584C12.1509 7.30597 12.3945 9.91535 10.7345 9.80032C9.30827 9.81382 8.93174 7.46004 10.615 7.47584V7.47584ZM89.1462 8.50768C89.9468 8.60557 89.9746 9.05583 89.244 8.80095C89.1735 8.75606 89.0341 8.51426 89.1462 8.50768ZM105.863 9.11595C107.438 8.97944 106.568 11.2987 105.678 11.0819C105.188 10.383 106.166 9.79054 105.863 9.11595ZM92.5352 9.19198C92.8899 10.8614 95.3467 10.8134 95.9675 12.4615C96.1931 12.9435 96.8961 14.508 97.3252 13.4282C97.2085 12.6502 96.8804 10.9726 97.9009 10.8864C97.5034 11.5243 98.3089 11.7787 98.5744 11.8314C98.0454 13.1367 98.9226 14.5622 100.41 14.221C101.22 13.775 100.977 15.2604 102.028 14.9162C102.35 15.1019 101.008 15.2628 101.062 15.8286C100.215 16.3049 98.2893 15.6776 98.4223 17.2515C98.3051 18.025 96.578 19.4874 98.0964 19.7279C99.0019 19.6835 99.3517 18.082 99.7474 18.0443C99.9039 20.3837 100.369 22.6852 100.356 25.0611C100.446 26.2648 101.758 26.6861 102.452 27.4289C103.29 27.407 104.026 27.569 104.19 28.4933C104.548 29.0398 105.372 28.7527 104.505 29.2428C103.872 30.2728 105.151 30.5904 105.754 30.8286C105.08 31.4952 103.369 32.2048 103.593 33.4354C104.666 33.7647 103.2 34.7681 102.811 35.1842C102.316 35.3547 101.248 35.1091 101.714 36.0966C102.217 37.2905 104.255 35.6827 103.886 37.3783C103.856 38.8551 106.009 40.6066 104.44 41.8209C103.452 42.5084 104.338 43.6453 105.233 43.8195C106.488 44.4256 106.486 45.7288 106.384 46.915C106.752 47.7497 107.82 47.9509 108.317 48.6312C109.127 48.6148 108.812 50.3701 110.023 50.0324C111.214 50.1555 112.08 49.1369 113.281 49.6631C115.086 49.6331 113.637 47.4799 113.835 46.6544C114.778 46.4 114.595 45.1751 114.998 44.6992C115.666 44.8799 115.54 46.5482 116.486 45.5682C117.388 43.9656 115.598 42.0305 114.65 41.1909C115.844 40.871 115.227 39.8746 114.889 39.1815C114.714 38.0128 115.097 36.8834 116.095 36.3247C116.636 35.8523 116.702 33.5756 117.322 34.9344C117.611 36.5287 117.935 38.1761 119.351 39.2509C120.127 40.3185 121.332 40.6244 122.308 41.1909C122.958 41.1968 123.683 40.8364 123.698 41.7883C124.734 42.8823 122.758 41.9124 122.21 42.6246C121.441 43.0581 119.874 44.6397 121.406 45.112C122.971 45.4727 125.037 44.6644 126.174 45.894C126.844 45.564 126.379 44.4893 127.434 45.4052C128.388 45.8091 128.771 47.0961 127.782 47.632C127.078 50.6319 131.44 52.2256 133.474 50.3909C135.025 49.826 137.158 49.5181 137.699 47.719C139.402 45.8014 140.421 43.3735 142.489 41.7992C142.957 41.2659 144.162 39.1166 144.748 40.6478C144.274 45.0221 141.147 48.5522 138.307 51.6836C137.79 52.1579 137.491 53.0919 137.253 53.5301C136.524 53.1603 135.515 53.3745 135.678 54.3122C135.135 54.9615 134.15 55.6967 134.907 56.604C135.531 58.1955 133.506 60.1261 134.896 61.3724C135.933 62.0262 137.271 62.611 137.21 64.0553C137.98 65.7011 140.648 66.1679 141.826 64.8699C142.953 64.3719 144.053 64.9176 144.629 65.8257C145.54 65.683 144.537 66.7599 144.922 67.3681C145.377 68.3543 144.1 69.4635 144.726 70.2249C143.742 70.7436 141.085 70.6632 141.837 72.4189C142.038 73.2665 143.139 73.8033 142.435 74.6457C142.256 75.6173 143.043 76.4624 143.814 76.5465C143.708 78.1664 145.618 78.7018 146.758 77.8717C147.937 77.5758 148.62 76.6414 149.625 76.2315C149.966 75.8606 149.839 74.7057 150.125 75.7645C149.929 76.2775 150.214 76.7815 150.353 77.1439C149.275 78.0376 150.617 78.9249 151.591 78.6537C152.182 78.7032 154.458 78.3298 153.492 79.577C152.78 80.4912 153.264 82.2139 151.798 82.5965C150.708 83.3151 148.235 82.2725 148.17 84.0846C148.365 85.167 149.768 84.0721 149.462 85.2794C149.937 85.9559 151.043 86.1125 150.766 87.2237C150.608 88.0134 151.319 89.5676 150.006 89.396C149.168 90.1356 147.482 88.9956 147.116 90.2215C147.112 91.0855 146.142 91.4892 145.498 90.971C143.677 91.2671 143.09 93.9365 143.684 95.4245C144.515 95.7691 143.915 95.5578 143.499 96.0001C142.768 97.4155 141.224 99.0438 142.315 100.725C142.81 101.218 144.077 101.083 143.532 102.126C142.881 103.389 142.159 105.993 140.208 105.222C138.612 105.215 136.107 105.376 135.57 107.166C135.748 108.772 137.826 107.893 138.72 108.784C140.133 109.645 141.342 107.149 142.652 108.469C143.366 109.143 143.481 110.434 142.457 110.848C142.376 112.031 141.347 111.289 140.903 110.794C139.424 110.648 140.133 112.761 138.959 113.27C138.692 113.777 139.138 114.78 138.166 114.28C137.421 114.073 137.383 115.652 136.743 114.976C137.196 113.018 134.208 113.175 134.354 111.304C134.064 110.148 134.427 109.066 135.386 108.437C135.431 107.477 133.456 106.768 133.409 108.111C133.353 109.386 132.014 110.133 132.127 111.413C131.493 111.339 129.654 110.98 130.324 112.14C131.137 112.793 129.867 114.475 131.399 114.411C132.093 114.432 132.98 113.581 132.518 114.715C132.337 115.437 131.404 116.335 131.019 115.247C130.648 114.065 129.233 113.778 128.543 114.834C127.154 115.547 126.991 117.421 128.401 118.093C127.641 118.714 126.814 119.218 126.023 119.711C126.142 120.636 124.708 120.33 124.839 121.243C123.898 120.619 124.745 119.369 123.97 118.592C124.087 117.734 126.003 116.927 124.448 116.322C123.403 115.795 121.906 114.645 120.95 115.464C120.803 116.576 122.154 119.004 120.233 119.125C119.356 119.195 118.213 118.81 117.561 118.625C117.774 117.448 116.432 117.181 116.345 116.17C115.195 114.949 113.687 117.237 115.128 117.984C116.066 118.571 114.343 119.563 114.824 120.45C115.558 121.394 113.544 120.874 113.108 120.602C111.695 120.141 111.812 118.244 110.284 117.875C109.138 117.614 108.879 115.132 107.525 116.116C106.918 116.825 105.612 116.385 105.114 117.365C103.872 118.327 103.773 119.666 105.255 120.428C106.354 121.001 106.924 119.038 108.177 119.765C111.006 120.632 113.21 123.654 112.588 126.695C112.826 127.9 111.919 129.229 112.304 130.29C112.773 130.707 112.878 132.515 112.087 132.528C111.493 131.796 110.451 131.58 110.067 132.68C108.963 133.476 108.405 131.674 108.22 130.964C107.262 131.249 107.349 133.162 106.352 133.408C106.539 132.42 105.078 133.468 105.385 132.43C105.712 130.844 104.277 129.692 105.048 128.14C105.268 127.172 104.763 126.38 105.222 125.468C105.415 123.771 104.604 121.873 102.865 121.46C102.086 120.585 101.059 122.098 100.464 122.133C100.613 121.138 101.548 120.834 101.735 119.917C103.212 119.022 104.645 117.293 104.668 115.507C104.429 113.831 102.296 113.816 101.388 114.986C100.813 115.826 99.704 115.89 99.2263 116.604C99.6522 117.124 99.9622 117.473 99.1176 117.832C98.4082 116.814 99.7667 115.299 100.343 114.42C101.972 112.806 99.2358 113.404 98.4225 112.694C98.1613 111.239 100.102 110.326 99.9106 108.729C100.406 107.477 99.9216 104.945 98.2052 105.297C97.3344 106.899 95.5156 107.254 93.8713 106.872C92.3713 106.796 90.4622 107.312 90.2759 108.99C89.6193 109.498 89.8658 107.944 90.1673 107.708C90.823 106.226 88.6297 106.206 88.1905 105.058C87.6187 104.076 90.525 102.74 88.8422 101.984C87.6769 101.433 87.5081 102.994 86.4959 102.853C84.5512 102.839 82.1869 103.578 80.4677 102.69C80.931 102.06 81.3082 100.782 80.1092 100.626C78.84 100.929 77.7096 100.458 76.8073 99.562C75.8478 99.2172 74.986 98.8497 74.4178 97.9435C72.9623 97.9636 74.1324 100.714 72.3757 100.377C70.1447 100.212 68.6193 98.3275 67.4227 96.7053C65.5206 97.0747 62.9504 95.9543 61.4051 97.4222C60.4601 99.5089 57.9482 100.81 55.7787 100.637C54.4903 99.6783 53.8464 101.965 52.4875 101.745C49.7402 102.319 46.7529 101.751 44.8842 99.562C44.0758 98.7129 41.7761 98.0251 42.8422 96.5206C43.8359 95.1382 45.9678 96.0426 46.9263 94.5112C47.9193 93.0245 50.0711 92.1846 51.5426 93.5988C52.2278 94.6122 53.1766 96.3601 54.6925 95.4996C55.3492 95.4793 55.0228 93.6704 55.4637 94.2396C55.189 96.0143 57.3174 95.6098 58.4182 95.706C60.0703 95.9672 61.9487 96.2224 63.154 94.7827C64.3974 93.7117 66.9173 94.3975 67.2054 92.2628C67.6888 91.1757 67.1928 89.6711 67.7051 88.711C69.1806 88.5482 71.1361 90.7329 72.2887 89.1563C72.2553 87.3585 68.6682 88.5869 69.1823 86.6363C69.6527 85.3831 70.6581 84.1151 72.191 84.5183C73.3233 84.708 74.629 84.3414 74.7218 83.0302C75.5118 81.0339 77.1248 79.4694 78.165 77.6862C77.7719 77.1757 76.941 77.1544 76.7747 76.2958C76.1421 75.5721 75.0312 75.8412 74.6133 76.5348C73.071 77.1423 71.7687 76.283 70.4641 75.6441C69.2372 75.2519 69.7475 73.5523 68.7479 72.8636C68.2066 71.5761 68.7346 70.2847 69.53 69.3118C69.9462 68.9483 70.6588 68.4014 71.4851 68.4645C72.6639 67.9504 74.1773 69.2545 75.0914 68.3125C75.0979 67.3523 75.9581 68.3379 75.7648 68.8338C76.364 70.3366 77.0767 71.7934 77.2746 73.4066C78.0449 74.6312 80.1124 74.7403 80.316 76.3067C80.9554 76.5048 81.3956 76.6995 81.1306 77.5558C81.2463 79.0714 79.8601 80.6144 81.2609 81.9222C81.7792 82.5159 82.6904 82.3944 82.9445 83.2473C84.3814 83.7526 84.0831 81.4303 84.3348 80.597C85.4567 79.3272 84.5721 77.1457 83.5745 76.1435C84.4238 75.2952 84.5028 73.2876 83.2052 72.9609C82.778 72.0251 84.8077 72.3614 84.0741 71.1904C83.7712 70.5564 82.3531 70.4894 82.9011 69.6154C83.7356 69.9297 85.7904 69.9525 85.1387 68.551C84.6235 68.1913 84.3292 67.4135 85.269 67.6169C86.1493 68.1767 86.9716 67.3376 86.1488 66.6827C86.7003 65.5104 88.3613 64.9285 89.1902 66.0527C90.7489 66.3363 89.7283 64.2516 89.5052 63.9781C91.1364 63.6812 90.382 61.6931 89.5703 60.9477C89.5024 59.847 88.1945 59.9509 87.5826 59.59C87.6545 56.612 84.3275 55.088 82.1735 53.7245C81.0308 52.693 78.5438 54.4813 80.0012 55.6362C80.7159 56.6751 78.7119 56.0385 79.1974 55.0388C78.6403 54.0325 78.0192 55.452 77.3726 54.8651C75.9783 54.3898 74.3622 55.6998 73.1364 54.9954C72.279 53.3147 73.0784 51.2005 72.4738 49.3906C72.4042 47.7792 73.7697 46.2955 75.1133 45.5888C77.3703 45.4788 75.2786 44.0784 74.6462 43.2102C73.8883 41.5016 75.4434 39.2266 74.2878 37.714C71.548 37.6363 68.85 35.4565 68.7374 32.6631C67.7343 31.4858 65.6854 32.0257 64.2732 31.7725C62.898 32.1601 64.4481 34.1862 65.4572 34.1187C66.1223 34.2794 65.0555 35.6574 65.8699 36.1282C66.345 36.6165 67.2508 36.9004 66.3153 37.4859C65.5966 38.1827 66.3868 39.1783 65.5549 39.7559C64.9877 40.7158 66.0244 41.6482 66.7932 41.4613C66.1728 42.3893 67.2235 44.1436 66.9344 44.633C65.2123 44.6139 66.1764 46.8034 66.6628 47.1312C65.6712 47.5004 66.2836 46.1031 65.2508 46.0993C64.236 46.2514 63.3362 46.0963 62.4267 45.6757C61.56 45.9802 61.499 45.5313 61.308 44.785C60.153 43.4144 60.8004 41.6227 61.1233 40.1145C60.7019 39.4512 59.5639 39.8887 59.3311 38.8762C57.961 37.0126 57.9239 33.6818 60.4173 32.7718C61.4642 33.0094 63.7019 31.7292 62.2747 30.7949C61.47 30.031 59.6937 30.5077 59.8091 28.9919C59.343 27.2532 59.5673 24.9601 61.6882 24.5384C64.1649 23.4946 65.6474 26.7096 67.76 27.406C68.7112 27.5959 68.8182 28.3519 68.781 29.1548C69.3032 30.7745 71.0178 31.3256 72.4959 31.5443C73.1108 31.9822 73.6453 33.6055 74.4836 32.5762C75.0446 31.2816 77.1143 32.8168 76.1455 33.5972C74.3421 33.2767 72.296 35.9204 74.2121 37.0948C76.5741 37.9655 79.6609 36.6049 81.3701 39.05C82.8461 40.4588 83.7947 43.9179 81.3267 44.8068C80.6584 45.0947 81.3169 46.3538 80.3491 45.7518C78.8243 45.4292 79.8394 47.3133 80.588 47.6743C81.0462 48.1649 82.4687 47.738 81.6851 48.7171C80.2035 49.301 81.6804 51.3691 82.5323 51.9321C82.8418 52.1462 81.0662 51.8199 81.7937 52.7359C83.3578 54.7269 86.0991 55.8295 88.5172 54.8539C89.8453 55.3382 90.0757 57.2602 91.4608 57.4934C91.7457 58.4929 92.9393 58.5237 93.3182 57.526C93.8975 56.2366 94.6901 55.1418 96.0881 54.7779C96.9177 53.6744 95.0743 53.5775 94.3393 53.4636C93.7162 53.1535 91.8546 52.5542 93.1119 51.856C93.5 49.9331 97.0639 50.503 97.0438 48.2283C97.1574 47.4953 97.3828 49.3744 97.815 49.586C99.0091 50.4616 100.047 48.1641 98.8252 47.544C97.6492 46.8547 97.8969 45.5018 97.4457 44.4591C96.9578 44.1323 95.7795 44.2648 96.2944 43.3186C96.6318 42.2468 97.1609 41.065 98.3038 40.8095C98.8816 38.9727 95.9458 38.7763 95.3711 37.4314C94.6613 37.6493 93.2427 36.8232 94.1763 36.1171C94.6505 35.3407 93.5692 34.3796 93.6875 34.0208C94.6197 32.93 93.0249 31.4588 92.5687 30.4145C91.3944 29.9281 92.6727 28.4468 91.45 28.025C91.0823 27.256 91.4228 26.1571 91.0372 25.3422C91.3597 24.0289 92.9771 22.5328 91.4934 21.3123C90.661 20.8198 91.6456 20.1033 91.7106 19.3898C92.4232 19.7712 92.5094 22.3944 93.8829 21.0299C94.0104 22.2173 92.9465 21.6815 92.3297 21.9966C91.8342 23.3425 94.1827 23.3414 95.0125 23.3435C96.2718 23.7749 97.3762 22.2199 96.2616 21.3449C95.9217 20.6929 95.6975 19.5614 94.6432 19.4658C95.6598 19.0025 94.5158 17.5694 95.6751 17.2826C97.086 16.6248 95.6759 15.2688 94.6215 15.3601C93.7115 14.8731 91.6207 14.8882 91.2978 13.7851C92.2876 13.2976 92.6435 10.9872 91.0588 11.4279C90.2258 11.1587 90.4184 8.66512 91.2435 10.0485C91.9532 10.4253 92.1247 9.19276 92.5361 9.19041L92.5352 9.19198ZM29.1029 9.26802C30.9939 8.72665 31.8535 11.9188 33.8169 10.843C34.677 10.22 34.5393 11.9923 35.381 12.0921C34.9274 13.0008 35.4822 14.6072 36.641 13.7323C36.9304 12.5525 37.0356 14.5388 37.8684 14.384C38.763 14.4267 38.7446 15.4403 39.1827 15.8938C38.8643 16.7565 39.2799 18.0785 39.4651 18.5333C38.6199 18.4771 37.3165 18.7622 37.4665 19.8041C36.3579 20.0456 35.8589 18.091 34.8488 19.1524C34.513 19.5738 34.2624 21.4244 33.4694 20.7925C33.219 19.8489 35.0103 20.1604 34.6207 18.946C34.7987 17.8656 34.0115 17.0151 32.9806 16.98C31.7604 16.2387 30.67 15.0967 29.2657 14.8186C28.8791 15.4439 28.9006 15.2789 28.223 15.1445C27.9183 15.7733 27.4655 15.8931 27.4083 15.0358C26.5639 14.8437 26.879 13.6864 26.0072 13.3414C25.4223 12.2363 25.7964 10.7529 27.0499 10.3652C27.5738 9.68676 28.2156 9.24636 29.1028 9.26811L29.1029 9.26802ZM43.9077 9.46353C44.5719 10.0238 43.8455 10.2053 43.9077 9.46353V9.46353ZM65.9787 10.1478C65.8928 10.1881 65.8928 10.1075 65.9787 10.1478V10.1478ZM100.692 10.8321C101.111 11.2209 100.971 12.7099 100.236 12.1464C100.436 11.82 100.278 10.8619 100.692 10.8321V10.8321ZM11.0486 11.8966C12.7528 11.6285 13.6277 14.0055 11.9719 14.7425C9.90406 16.1113 8.56778 12.0774 11.0486 11.8966ZM42.8641 11.9618C43.5589 11.9495 43.7123 13.0531 42.9075 12.342C42.7748 12.1901 42.4143 12.0025 42.8641 11.9618ZM113.151 12.0487C113.975 12.6192 112.57 12.0339 113.151 12.0487V12.0487ZM75.4392 12.9611C77.2157 12.8196 77.3344 15.7414 75.3306 14.8837C74.3532 14.5136 74.0528 12.9047 75.4392 12.9611ZM114.27 13.2439C114.592 13.7549 114.286 13.3855 114.27 13.2439V13.2439ZM42.1683 14.4061C42.7974 14.785 41.9739 14.7504 42.1683 14.4061V14.4061ZM89.4284 15.0035C90.2175 15.1696 89.2667 15.5041 89.1568 15.0361C89.2463 15.0125 89.3349 15.0099 89.4284 15.0035ZM50.803 15.6986C51.3702 15.4329 52.8807 16.3926 51.5416 16.4046C51.1293 16.5044 49.1501 16.3639 50.1622 15.8072C50.3692 15.7378 50.5874 15.7211 50.803 15.6986L50.803 15.6986ZM87.1043 16.5024C88.1513 16.3684 88.1675 18.0864 87.2347 18.0665C86.5486 17.4961 85.7631 16.8966 87.1043 16.5024ZM111.749 16.7956C112.43 16.9467 111.858 18.3038 112.966 18.0882C113.772 18.3422 115.217 17.8432 115.681 18.0991C116.062 18.8658 115.151 19.9794 114.508 19.044C113.434 18.1988 112.64 19.842 112.401 20.1628C111.905 19.3959 110.158 19.4383 111.282 18.4575C111.32 17.9143 112.3 17.7682 111.793 16.9803C111.799 16.9155 111.67 16.7887 111.749 16.7956L111.749 16.7956ZM102.842 17.1975C104.157 17.1035 102.106 18.3442 102.375 17.3496C102.503 17.237 102.672 17.1938 102.842 17.1975ZM44.3612 17.2736C45.8264 17.2055 47.4981 17.9594 47.2503 19.6414C47.2465 20.5326 47.0107 21.4039 46.1098 21.6182C45.8819 22.3965 45.4348 22.4472 44.9802 21.7268C44.3773 20.8726 42.8945 21.1385 42.9816 19.7717C42.8567 18.7996 43.1447 17.2884 44.3611 17.2735L44.3612 17.2736ZM31.5223 17.4365C32.3297 17.9446 30.9866 17.7732 31.5223 17.4365V17.4365ZM108.022 17.4473C108.569 17.6755 109.227 18.5732 108.076 18.4466C107.368 18.7919 107.356 17.3684 108.022 17.4473ZM144.289 17.4799C145.059 17.4315 146.31 18.3088 145.223 18.8811C142.891 19.8148 143.522 22.7155 142.518 24.5954C141.829 26.393 141.438 28.4131 140.487 30.0255C139.847 30.1676 140.09 28.558 140.107 28.1029C140.467 27.1137 139.879 25.9208 140.954 25.3657C142.787 23.1641 142.579 20.0016 143.865 17.643C143.997 17.5586 144.119 17.4712 144.289 17.48L144.289 17.4799ZM81.9771 18.197C83.1764 18.4736 80.9135 20.2727 80.8149 19.3809C81.6202 19.3114 81.4852 18.3552 81.9771 18.197ZM105.873 20.2825C106.732 20.2738 106.452 21.3343 105.656 20.8473C105.267 20.6781 105.542 20.3047 105.873 20.2825ZM39.7792 20.4889C40.4303 20.3671 41.8928 20.5917 41.0826 21.4773C40.7026 22.3826 39.6568 23.042 39.0949 21.9009C38.3662 21.1956 38.8174 20.4671 39.7792 20.4889L39.7792 20.4889ZM146.867 20.6083C147.844 20.6239 146.665 21.7682 146.748 20.9016C146.783 20.8209 146.72 20.5866 146.867 20.6083ZM61.9271 21.0211C62.2624 20.7978 63.3608 21.471 62.7526 21.5642C62.4609 21.448 62.0826 21.1977 61.9271 21.0211ZM111.044 21.2709C111.461 21.7996 111.166 23.269 110.468 22.3137C110.916 22.0972 110.825 21.5482 111.044 21.2709ZM163.17 21.3578C164.387 21.0939 165.193 23.4591 163.81 23.541C163.251 24.7284 163.396 26.2746 162.344 27.2883C161.464 28.5025 160.97 28.7567 162.149 27.2883C163.077 26.0444 164.175 23.938 162.8 22.6829C162.726 22.3394 162.663 21.3677 163.17 21.3577L163.17 21.3578ZM47.7395 22.998C49.4448 23.2323 50.0296 25.0725 50.5962 26.3978C51.462 26.7821 52.4514 26.7602 53.0293 27.6687C53.7016 28.2133 54.9521 28.5841 55.5493 28.5811C54.1964 28.2669 53.8136 29.7922 54.5174 30.6991C55.196 31.6261 54.8276 31.6228 54.1807 32.0243C53.8754 33.5882 51.6754 33.7171 50.3572 33.5884C49.3136 33.0779 49.1318 34.1977 48.9451 34.8267C47.4683 34.8364 48.7276 36.2903 49.0212 36.9121C49.3396 37.6769 47.7145 37.0501 47.6417 36.5537C46.3103 35.3166 45.1271 33.8622 44.948 31.9918C43.7956 30.8563 41.1683 31.6927 40.7118 29.6564C39.8386 27.6075 42.6946 25.7958 44.1768 27.4624C44.6592 28.1449 46.004 28.9447 45.8278 29.7868C44.5543 29.9033 44.7458 32.4099 46.0341 31.4704C47.3212 29.7929 47.8311 27.1006 46.2188 25.4529C45.4005 24.3072 46.6211 23.1107 47.7395 22.998L47.7395 22.998ZM28.0034 23.1392C28.7697 23.7352 30.6063 23.0058 30.3496 24.5729C30.218 26.5805 32.8124 27.3405 33.9883 26.0176C35.0103 26.5507 34.6491 27.45 34.2815 28.2661C34.3134 29.7262 34.8231 31.9148 36.1932 32.4479C35.5413 33.3235 33.4868 33.1337 33.9774 34.7615C34.7879 35.4099 34.9972 36.5995 36.0629 37.1293C36.8394 38.0078 35.0907 35.909 34.2707 36.2712C32.9868 37.1226 34.8441 38.4646 35.4112 39.1603C36.2147 40.1312 37.4813 40.9029 38.3221 41.6368C37.7016 42.0577 36.9988 40.5482 36.4213 40.3008C35.9313 39.6811 33.9668 38.7533 34.3358 40.3008C34.6315 41.1997 35.2884 42.1536 34.1294 42.6361C33.4019 43.7043 33.8079 45.3134 35.0635 45.6883C35.8269 46.4286 35.1194 47.6637 34.0968 47.209C33.37 46.8998 31.951 46.9994 32.0439 47.8499C32.2327 46.8862 30.4549 46.1857 30.7188 47.5131C30.4315 46.3778 28.9673 47.12 28.5138 45.9816C27.9853 45.0634 26.8278 44.7937 26.1351 45.482C24.9783 42.9242 26.1636 39.9949 28.0468 38.1611C29.6928 37.9898 28.3664 36.3178 27.3734 36.282C26.047 35.9118 24.5185 35.9268 23.4848 35.0003C22.9272 35.0463 22.7464 36.289 22.8439 35.1197C23.6052 33.668 22.0528 32.0342 20.6172 32.6107C19.4028 33.2816 19.6963 35.1618 18.6077 35.8366C18.3322 34.3994 19.7056 33.0725 20.3891 31.8067C20.0423 29.724 19.6084 27.0637 21.106 25.2463C23.0971 23.8411 25.9827 24.5914 27.9708 23.1282L28.0034 23.1392ZM110.423 23.704C111.846 24.008 113.665 23.8924 114.67 25.0509C114.021 26.1211 113.159 24.9399 112.302 25.0074C111.99 23.9058 109.837 25.4672 110.249 23.9321C110.303 23.8603 110.166 23.4675 110.423 23.704V23.704ZM190.54 25.1377C190.663 25.8579 190.022 25.0769 190.54 25.1377V25.1377ZM53.9948 26.5498C54.558 26.4677 54.9262 27.5456 54.2663 26.8539C54.1834 26.7666 54.031 26.6328 53.9948 26.5498ZM115.809 26.615C115.638 27.66 116.698 28.1972 117.298 28.5592C117.026 29.9347 118.011 30.94 118.558 31.9698C118.014 32.9747 115.941 31.4611 115.733 33.0016C114.211 32.9623 112.085 33.936 112.182 35.5325C110.777 36.1191 111.068 38.2893 111.128 39.356C109.404 39.8193 109.337 41.8796 109.129 43.2772C107.891 44.2904 106.749 41.832 108.38 41.409C109.496 40.2334 108.969 38.3973 108.326 37.1945C108.952 36.4057 109.101 35.3404 109.129 34.3813C109.589 33.5643 111.427 33.9294 110.726 32.5131C110.772 31.9094 112.139 31.4635 111.964 32.3719C112.464 33.6192 115.164 32.919 114.137 31.6224C113.07 30.908 111.519 30.5426 111.106 29.2328C112.065 29.2831 112.604 28.6707 113.453 28.7332C113.793 28.3584 114.012 27.3152 114.441 27.3863C114.689 28.7025 115.943 28.4994 115.81 26.6151L115.809 26.615ZM80.1164 26.6584C80.9571 26.6821 79.0406 26.9692 80.1164 26.6584V26.6584ZM71.8505 27.3644C72.8054 27.2015 75.003 28.3126 73.621 29.1241C73.1375 28.3511 71.7267 27.998 71.4051 27.4622C71.5411 27.3831 71.6965 27.3721 71.8505 27.3644L71.8505 27.3644ZM36.7998 27.5165C37.9031 27.1582 38.2389 28.5173 37.2234 28.8091C37.1587 28.5301 36.4019 27.5552 36.7998 27.5165ZM83.2232 27.5165C83.7443 27.5587 85.2137 27.9324 84.9285 28.581C84.0583 29.5133 85.5544 29.8191 86.2211 29.678C86.3486 30.3767 86.4317 32.625 85.2109 31.8503C84.456 31.3564 83.5983 31.8407 82.93 31.0791C82.525 30.8667 83.2038 29.6762 82.9626 29.1023C83.0741 28.7222 82.7644 27.694 83.2233 27.5164L83.2232 27.5165ZM144.485 28.0379C145.594 27.8128 146.138 29.2977 144.909 29.5368C143.536 30.2069 142.991 27.9806 144.485 28.0379V28.0379ZM109.804 29.2653C109.533 29.5713 107.827 29.5607 108.935 29.3087C109.223 29.2722 109.513 29.2623 109.804 29.2653ZM79.4352 31.8177C79.235 32.2926 78.1676 32.597 79.0224 31.9806C79.1391 31.8899 79.2868 31.8205 79.4352 31.8177ZM57.8955 32.1001C58.7582 32.0199 58.5235 33.4379 57.8086 32.5997C57.394 32.3679 57.4684 32.1872 57.8955 32.1001ZM81.2385 32.5237C81.4025 32.6358 81.0754 32.6392 81.2385 32.5237V32.5237ZM41.7125 32.7301C42.4956 32.7004 42.7309 33.8401 41.7125 33.7294C40.9548 34.0755 40.587 33.3638 41.4084 32.9799C41.526 32.9766 41.582 32.7259 41.7125 32.7301V32.7301ZM161.52 32.8713C162.01 33.1645 161.398 33.1197 161.52 32.8713V32.8713ZM146.042 33.1537C146.73 33.6382 145.62 34.0842 145.585 33.5664C145.694 33.3953 145.856 33.2318 146.042 33.1537ZM105.451 34.2073C105.472 35.0382 107.395 34.6708 106.363 35.2717C106.638 36.0183 104.752 34.4895 105.451 34.2073ZM146.411 34.9893C146.411 35.0702 146.381 34.9644 146.411 34.9893V34.9893ZM114.433 35.6084C114.376 36.4499 114.016 35.9965 114.433 35.6084V35.6084ZM83.9004 35.5976C84.7405 35.492 85.7482 36.8944 84.7585 37.1834C84.1803 36.9517 84.0006 36.1283 83.9004 35.5976ZM153.47 36.0321C153.864 36.2445 152.782 36.2094 153.449 36.0321H153.47ZM106.144 36.1841C106.522 37.319 105.275 36.8245 105.894 36.195C105.996 36.2774 106.191 35.9442 106.144 36.1841ZM151.787 36.2602C152.335 36.7782 151.269 37.8899 151.037 38.4651C149.446 40.1529 149.319 42.9525 147.399 44.2546C146.695 44.6839 145.545 44.7561 146.269 43.5811C146.388 42.0502 148.099 41.6006 148.419 40.2899C148.274 39.4573 148.02 38.502 149.234 38.4542C150.467 38.0952 150.53 36.3696 151.787 36.2601L151.787 36.2602ZM149.332 36.5534C150.034 36.6723 148.766 36.9692 149.332 36.5534V36.5534ZM186.414 36.6512C187.043 37.0302 186.22 36.9955 186.414 36.6512V36.6512ZM57.2766 36.901C57.9337 37.4277 56.238 37.1998 57.1463 36.9227C57.1897 36.9177 57.2324 36.8995 57.2766 36.901ZM134.798 37.607C134.713 37.6474 134.713 37.5667 134.798 37.607V37.607ZM180.962 37.9438C181.664 38.0626 180.396 38.3595 180.962 37.9438V37.9438ZM69.4646 38.0958C70.5753 38.0172 71.5138 38.7022 71.8868 39.6708C72.0035 39.8719 70.864 40.9608 72.0063 41.2458C71.34 42.6668 69.2821 43.1889 68.2045 41.8866C68.2106 41.1902 67.3916 41.2418 67.8352 40.5941C67.8082 39.9318 66.5306 39.9095 67.5746 39.3124C68.0609 38.5067 68.4233 38.084 69.4645 38.0958H69.4646ZM21.5856 38.7584C21.5951 39.2675 21.0774 39.967 21.3684 39.0734C21.3271 39.0311 21.6723 38.4343 21.5856 38.7584ZM42.7446 38.7041C43.9989 38.6621 44.8506 41.0318 43.4397 41.3869C42.1262 41.3475 41.1639 39.1019 42.7446 38.7041ZM133.116 38.7475C134.388 38.6132 135.585 39.6175 134.941 40.9852C134.887 42.4186 132.835 43.4757 131.595 42.9186C130.217 42.1406 129.891 40.4691 131.161 39.4101C131.695 38.9431 132.42 38.7791 133.116 38.7475L133.116 38.7475ZM94.4265 38.7693C94.851 39.143 94.5397 39.6562 94.4265 38.7693V38.7693ZM17.0242 39.0734C17.4737 39.2851 16.8218 39.2896 17.0242 39.0734V39.0734ZM54.606 39.106C55.71 39.0347 56.585 39.7918 56.6046 40.8656C57.2217 41.4803 56.112 42.6487 55.4315 42.7447C53.2809 43.1254 52.0877 39.2247 54.606 39.1061V39.106ZM49.6529 39.8012C50.205 39.5734 50.8222 40.2683 50.0222 40.3442C48.9111 40.2514 47.677 39.9317 49.4465 39.812C49.5155 39.8127 49.584 39.7998 49.6529 39.8012H49.6529ZM40.0726 40.5506C40.5348 40.8702 40.9702 41.7936 40.1813 41.3001C40.0538 41.0983 40.0253 40.7238 40.0726 40.5506ZM165.234 40.7353C165.578 40.7046 164.772 41.1922 165.234 40.7353V40.7353ZM113.651 41.224C114.054 41.2803 114.078 42.4702 113.824 42.8099C113.083 42.2941 111.605 42.3789 113.021 41.5499C113.212 41.3966 113.411 41.2662 113.651 41.224H113.651ZM125.903 41.8649C125.957 42.3102 125.28 42.1189 125.903 41.8649V41.8649ZM51.4114 41.8649C52.0638 42.1014 49.5017 42.2407 50.738 42.017C50.9531 41.9218 51.1832 41.9034 51.4114 41.8649ZM50.0863 42.2342C49.2612 42.386 49.8442 43.9097 48.7177 43.3964C48.0626 42.7561 49.8127 42.4097 50.0863 42.2342ZM137.927 42.4732C137.841 42.5135 137.841 42.4329 137.927 42.4732V42.4732ZM158.662 42.4623C161.115 42.2833 162.573 44.933 163.582 46.7636C163.655 47.6228 162.939 48.4395 162.713 49.2945C161.509 52.3631 157.04 53.1244 154.914 50.6414C152.035 48.2245 153.852 42.1143 157.945 42.495C158.183 42.4774 158.423 42.4661 158.662 42.4624L158.662 42.4623ZM95.3255 42.647C95.3002 42.7599 95.3002 42.534 95.3255 42.647V42.647ZM192.974 43.5594C193.097 44.2796 192.456 43.4985 192.974 43.5594V43.5594ZM136.211 43.5811C137.459 43.8741 135.357 45.8806 135.288 44.2328C135.225 43.7224 135.818 43.5947 136.211 43.5811ZM92.4807 44.3088C93.0344 44.227 93.6327 44.9962 92.7414 44.9062C91.7303 45.2041 91.6506 44.4396 92.4807 44.3088ZM198.721 44.689C198.885 44.8011 198.558 44.8045 198.721 44.689V44.689ZM185.731 44.8954C186.486 45.2078 185.033 45.9899 185.405 45.004C185.484 44.9108 185.618 44.9128 185.731 44.8954ZM67.3681 45.4602C67.3849 45.979 67.1396 45.1797 67.3681 45.4602V45.4602ZM94.5995 45.6774C95.3202 45.8516 95.2674 46.6769 94.6972 46.1119C94.6468 46.0698 94.3655 45.384 94.5995 45.6774ZM14.8304 45.9381C16.4284 46.2969 15.4151 49.033 13.9289 47.8498C13.4209 47.1124 13.8686 45.9696 14.8304 45.9381ZM83.7048 46.2857C84.3706 46.8809 82.9833 47.3213 83.2812 46.4921C83.3613 46.3545 83.5527 46.2893 83.7048 46.2857ZM45.7858 46.97C46.187 47.1267 47.0222 48.554 46.2094 47.7629C46.0948 47.6237 45.5598 46.8381 45.7858 46.97ZM39.5945 47.1655C40.0974 47.237 40.6763 48.0227 39.8769 47.5131C39.8529 47.4876 39.2829 47.0159 39.5945 47.1655ZM149.538 47.3284C149.842 47.3559 149.238 47.3561 149.538 47.3284V47.3284ZM64.3908 48.2082C64.3656 48.3212 64.3656 48.0953 64.3908 48.2082V48.2082ZM90.1005 48.1974C90.101 48.2783 90.0711 48.1724 90.1005 48.1974V48.1974ZM92.3597 48.7187C92.8988 49.0284 92.1239 49.8981 92.1859 48.9903C92.2089 48.8907 92.2463 48.7501 92.3597 48.7187ZM62.815 49.2836C64.0287 49.4054 63.0354 49.5568 62.815 49.2836V49.2836ZM168.437 49.4139C169.354 49.4233 169.51 50.7752 168.534 50.7499C167.868 50.6718 167.964 49.7079 168.437 49.4139ZM37.0519 49.957C38.7905 49.7129 39.9898 52.2625 39.0288 53.4546C38.1257 54.3946 40.193 54.1581 40.3757 54.9644C41.6511 55.8558 41.5409 57.8529 40.1367 58.4293C38.5376 58.0648 37.6426 56.5262 37.3995 55.0295C36.3275 54.2581 35.1947 53.2952 35.1294 51.8144C35.0457 50.7384 36.0434 49.9706 37.052 49.957L37.0519 49.957ZM87.1034 50.1851C88.2891 50.0793 88.7436 50.9874 88.9282 52.0207C87.8147 51.9438 86.443 51.6023 87.0056 50.1634L87.1034 50.1851ZM144.323 50.4566C145.425 50.7251 143.43 50.9939 144.171 50.4784C144.221 50.4674 144.272 50.4578 144.323 50.4566ZM164.342 51.4994C164.917 51.93 163.327 51.9638 164.309 51.5102C164.351 51.538 164.314 51.4861 164.342 51.4994ZM183.068 51.9881C183.558 52.2814 182.946 52.2365 183.068 51.9881V51.9881ZM52.1822 52.2162C53.9205 51.9867 54.2458 55.0405 52.4103 54.5298C51.1783 54.1914 50.5555 52.4562 52.1822 52.2162ZM190.464 52.238C191.018 53.4945 188.898 52.7367 190.464 52.238V52.238ZM42.2756 52.5421C42.9777 52.6609 41.7099 52.9579 42.2756 52.5421V52.5421ZM194.82 52.9114C196.3 52.9437 195.599 55.0615 194.44 54.4538C193.445 54.0616 193.983 53.0184 194.82 52.9114V52.9114ZM164.832 52.9983C166.6 53.1479 165.307 55.3655 164.18 54.5081C164.059 53.9819 164.092 52.9938 164.832 52.9983ZM157.543 53.4328C158.218 53.7845 156.832 54.8447 157.272 53.7586C157.332 53.624 157.402 53.4825 157.543 53.4328ZM91.0677 53.8129C91.2633 54.3013 91.5387 55.5372 90.8939 54.6819C90.7969 54.4037 90.9699 53.9068 91.0677 53.8129ZM140.511 54.1171C140.486 54.23 140.486 54.0041 140.511 54.1171V54.1171ZM43.1013 54.1171C44.0346 54.313 41.9032 55.0091 42.7103 54.2257C42.8283 54.1555 42.9598 54.1197 43.1013 54.1171ZM16.6532 54.3343C17.1809 54.6781 15.5339 54.7569 16.4577 54.3778C16.5281 54.4044 16.5858 54.3302 16.6532 54.3343ZM19.5968 54.3343C20.4593 54.3048 19.4631 54.8734 19.5642 54.3452L19.5859 54.3343H19.5968ZM203.065 54.4103C203.002 54.9261 202.533 54.4678 203.065 54.4103V54.4103ZM56.2332 54.5515C56.5212 54.6681 55.906 54.6922 56.2332 54.5515V54.5515ZM153.555 55.5943C153.843 55.7109 153.228 55.7349 153.555 55.5943V55.5943ZM137.371 55.8441C137.371 55.925 137.342 55.8191 137.371 55.8441V55.8441ZM77.0011 56.1156C78.0602 56.0123 78.1432 57.6932 77.088 57.6037C76.4765 57.191 75.6048 56.1311 77.0011 56.1156ZM178.939 56.3763C178.853 56.4166 178.853 56.336 178.939 56.3763V56.3763ZM173.161 56.4198C173.284 57.14 172.643 56.3589 173.161 56.4198V56.4198ZM62.9785 56.4958C64.5973 56.6843 66.2306 58.2836 66.3999 59.863C65.7175 60.5002 64.9748 61.6068 66.0523 62.3179C67.2199 63.3984 69.5616 64.1513 70.2232 65.305C67.8358 64.2914 66.165 61.8484 63.3911 61.7206C61.5333 61.273 59.5652 58.6446 61.5988 57.1151C61.9742 56.7754 62.4494 56.5184 62.9783 56.496L62.9785 56.4958ZM43.8941 57.2127C45.5291 57.0323 46.9741 59.0046 46.3163 60.4495C44.9455 62.66 40.9911 59.4155 43.0795 57.6472C43.2977 57.4227 43.5731 57.2323 43.8942 57.2127L43.8941 57.2127ZM139.609 58.288C140.228 58.6649 139.402 59.4414 139.175 58.4835C139.305 58.3839 139.441 58.3014 139.609 58.288ZM19.5631 58.9071C21.746 58.7407 23.0173 61.6467 21.3553 63.1107C19.9206 63.8857 18.1255 62.4998 17.9338 61.0904C18.3028 60.1931 18.2294 58.8553 19.5631 58.9072L19.5631 58.9071ZM53.8007 59.8413C54.0783 60.1252 53.1639 60.1981 53.8007 59.8413V59.8413ZM159.279 60.3735C159.254 60.4865 159.254 60.2605 159.279 60.3735V60.3735ZM154.403 60.6668C154.34 61.1825 153.87 60.7242 154.403 60.6668V60.6668ZM29.4479 60.6776C29.6119 60.7897 29.2848 60.7931 29.4479 60.6776V60.6776ZM145.54 61.2316C146.248 61.6254 144.874 61.7583 145.54 61.2316V61.2316ZM201.185 61.2424C201.099 61.2828 201.099 61.2021 201.185 61.2424V61.2424ZM77.1966 61.3185C78.0805 61.554 76.5121 61.7354 77.1966 61.3185V61.3185ZM49.9226 61.4054C50.9586 61.5012 49.9786 61.7807 49.9226 61.4054V61.4054ZM83.9084 61.8616C84.1993 62.6542 85.8714 62.6736 85.8092 63.48C85.2506 64.2297 84.1262 65.914 83.4305 64.262C82.3742 63.2715 82.8422 62.5516 83.9085 61.8616L83.9084 61.8616ZM179.079 62.2743C180.412 62.1342 178.942 64.137 178.612 62.85C178.286 62.3957 178.691 62.3199 179.079 62.2743ZM198.446 62.2852C199.345 62.0278 199.193 63.1838 198.576 63.1541C198.293 62.9022 197.567 62.2603 198.446 62.2852ZM44.6317 62.6328C45.3295 62.7029 45.0999 63.5935 44.4905 62.8609C44.2796 62.7153 44.4736 62.6586 44.6317 62.6328ZM196.286 63.3171C196.995 63.7109 195.62 63.8438 196.286 63.3171V63.3171ZM172.858 63.4257C173.83 64.0064 171.982 64.8579 172.391 63.7298C172.499 63.5669 172.658 63.4443 172.858 63.4257ZM169.306 63.7516C170.19 63.9871 168.622 64.1685 169.306 63.7516V63.7516ZM72.2657 63.8602C73.1175 64.1858 72.7708 65.6758 73.7103 66.1411C73.0576 66.796 71.4149 66.3791 71.6792 65.0767C71.7093 64.6284 71.7312 63.9556 72.2657 63.8601V63.8602ZM79.5757 64.2838C80.8301 64.4406 82.2297 65.9267 80.7597 66.9015C80.1779 67.5956 79.9333 67.4389 79.63 66.6951C79.1396 66.1555 78.3409 65.6533 79.315 65.0984C79.48 64.8611 79.5489 64.529 79.5757 64.2838V64.2838ZM192.81 64.3598C193.518 64.7536 192.144 64.8865 192.81 64.3598V64.3598ZM10.6459 64.7074C11.3479 64.8262 10.0802 65.1232 10.6459 64.7074V64.7074ZM163.039 64.7509C164.122 64.6058 163.837 66.4246 163.376 66.7494C162.356 66.4572 161.253 64.8993 163.039 64.7509ZM66.2375 65.4026C67.1282 65.6415 66.5514 67.028 65.8573 66.2389C65.7196 65.9291 65.8956 65.4597 66.2375 65.4026ZM148.495 65.5764C149.643 66.3463 147.349 66.3122 148.495 65.5764V65.5764ZM153.404 65.9348C154.269 65.6958 155.154 66.5665 153.893 66.8255C152.951 66.9085 151.293 68.0326 150.689 67.0536C151.279 66.2108 152.399 65.9771 153.404 65.9348H153.404ZM159.965 66.0977C160.331 66.0107 161.543 66.2793 160.519 66.3693C160.219 66.5158 158.197 66.3468 159.368 66.1303C159.566 66.1101 159.766 66.1003 159.965 66.0977V66.0977ZM37.8657 66.4888C39.4887 66.425 39.1921 68.7202 40.4834 69.302C40.904 70.1627 40.0674 71.5242 41.2546 72.1152C41.5686 72.6209 40.0074 72.5684 40.1032 73.386C40.386 74.5263 38.4922 73.9095 38.9084 75.1565C39.3354 75.5812 37.196 77.7198 36.4533 77.0539C33.7707 75.3997 31.9403 72.4302 31.2834 69.3237C32.8357 67.4169 35.542 66.8087 37.8657 66.4888V66.4888ZM165.949 67.5641C167.227 67.673 166.203 70.0508 165.254 68.9218C164.648 68.3225 165.319 67.6964 165.949 67.5641ZM173.824 67.9225C174.708 68.1581 173.139 68.3395 173.824 67.9225V67.9225ZM78.3712 68.0698C79.4561 68.357 80.1942 70.4303 79.099 70.6766C78.6845 70.219 77.8171 70.18 77.9476 69.2754C77.9116 68.863 77.9875 68.2995 78.3712 68.0698L78.3712 68.0698ZM19.6745 69.1017C19.9556 71.0277 20.8419 73.6286 20.8693 75.1626C19.7316 73.2633 19.952 70.9545 19.6201 68.8084L19.6745 69.1017ZM63.8379 68.8736C65.2925 68.6204 66.1365 71.2136 64.4244 71.2849C63.3129 71.1393 62.2244 69.1284 63.8379 68.8736ZM23.8872 70.2639C24.5959 70.6577 23.2213 70.7906 23.8872 70.2639V70.2639ZM79.2078 71.1003C79.8292 71.1362 80.2814 71.5097 79.7943 72.1104C78.9494 73.0132 78.8496 70.8978 79.2078 71.1003ZM147.843 71.0351C148.739 71.4426 147.534 72.0553 147.55 71.2632C147.601 71.1434 147.719 71.0609 147.843 71.0351ZM146.029 71.9801C145.736 72.7475 146.744 74.5246 145.225 74.109C143.594 74.5478 144.363 71.9932 145.519 72.0127C145.628 72.0315 146.099 71.7567 146.029 71.9801V71.9801ZM154.045 72.0887C154.658 72.7847 154.083 72.8998 153.806 72.2625C153.871 72.205 153.966 72.0285 154.045 72.0887ZM23.8215 72.4037C24.5928 72.3463 24.5229 73.5118 23.8107 72.8599C23.6041 72.6537 23.3091 72.4059 23.8215 72.4037ZM149.536 72.697C150.638 72.9655 148.642 73.2342 149.384 72.7187C149.433 72.7078 149.485 72.6981 149.536 72.697ZM67.2892 73.5116C67.7217 73.9944 67.4169 74.2554 67.2892 73.5116V73.5116ZM162.298 74.815C163.629 74.8862 163.08 77.6436 161.787 76.6507C160.637 76.102 161.483 75.0706 162.298 74.815ZM58.5009 74.9128C59.7885 74.9495 61.4403 75.1474 61.6727 76.6507C62.0901 77.7588 63.766 78.7369 63.3671 79.9635C61.6746 80.7069 59.3592 81.057 57.6536 80.2242C56.2407 78.9895 55.9229 76.7743 57.4147 75.4557C57.6967 75.1065 58.0491 74.8934 58.5009 74.9126L58.5009 74.9128ZM9.98178 76.2488C11.0873 76.3722 10.0371 78.2719 9.38438 77.1829C8.8478 76.8283 9.61898 76.2996 9.98178 76.2488ZM159.127 76.5312C159.041 76.5715 159.041 76.4909 159.127 76.5312V76.5312ZM82.4777 77.6601C83.1483 77.9317 82.6571 78.6087 82.141 77.8991C82.2214 77.759 82.3337 77.7016 82.4777 77.6601ZM164.18 78.3336C165.076 78.7411 163.871 79.3538 163.887 78.5617C163.938 78.4419 164.056 78.3594 164.18 78.3336ZM161.367 78.7898C161.342 78.9027 161.342 78.6768 161.367 78.7898V78.7898ZM47.1321 79.3003C48.2463 79.1334 48.1003 80.8573 47.1103 80.2127C46.9552 79.9564 46.9356 79.5266 47.1321 79.3003ZM8.5515 80.1584C9.07839 80.4442 8.22427 80.8094 8.5515 80.1584V80.1584ZM42.7337 80.8318C44.3049 81.21 47.0732 81.451 47.3935 83.4277C47.0992 85.1583 44.636 85.7309 43.2443 85.3394C42.4069 84.238 39.6082 84.2295 40.1379 82.4067C41.1431 82.1804 41.7296 80.9937 42.7339 80.8318L42.7337 80.8318ZM73.3753 81.1251C74.2592 81.3606 72.6908 81.542 73.3753 81.1251V81.1251ZM20.5431 81.4727C21.427 81.7082 19.8586 81.8896 20.5431 81.4727V81.4727ZM23.9321 82.4285C24.3678 83.1545 22.8904 83.1698 23.6605 82.4937C23.7482 82.4542 23.8351 82.4274 23.9321 82.4285ZM73.0488 82.5045C73.7051 82.6936 72.3021 83.244 72.951 82.5588C72.974 82.5263 73.0172 82.5165 73.0488 82.5045ZM155.328 83.5038C156.47 83.8323 156.167 86.0155 154.871 85.4373C153.507 85.0301 154.086 83.5425 155.328 83.5038ZM56.9298 84.8833C58.032 84.9293 56.4015 86.7006 56.2346 85.3395C56.3744 85.0985 56.6479 84.9103 56.9298 84.8833ZM36.0532 85.2091C36.7619 85.6029 35.3873 85.7358 36.0532 85.2091V85.2091ZM52.6067 85.2526C53.3953 85.2117 53.305 86.6455 52.3243 86.2736C51.417 86.454 52.0683 85.1712 52.6067 85.2526ZM38.5732 86.0998C39.339 86.3129 37.7765 86.6517 38.5732 86.0998V86.0998ZM31.502 87.0774C31.6452 87.698 31.0677 87.6829 31.502 87.0774V87.0774ZM165.45 87.3272C166.992 87.9292 167.889 89.4933 167.286 91.1289C167.086 92.3482 165.415 91.0284 164.831 90.7705C163.975 90.2685 162.735 89.1412 164.168 88.4242C164.565 88.0286 164.955 87.5551 165.45 87.3272L165.45 87.3272ZM66.2924 87.6422C67.001 88.036 65.6265 88.1689 66.2924 87.6422V87.6422ZM160.475 88.37C161.928 88.1939 162.861 90.2402 161.399 90.955C159.78 92.475 157.96 88.7757 160.171 88.4133C160.271 88.3968 160.373 88.3677 160.475 88.3698V88.37ZM154.284 88.4677C155.48 88.7259 157.962 88.8589 157.434 90.7053C157.077 91.6143 158.803 92.1689 158.031 92.8777C156.68 92.9449 156.449 91.0684 155.479 90.4337C155.685 89.3158 153.331 89.3767 154.284 88.4677L154.284 88.4677ZM65.2486 89.2063C66.5201 89.4489 64.0002 89.4349 65.2486 89.2063V89.2063ZM27.2528 89.4127C28.2468 89.4725 27.3778 90.084 27.2528 89.4127V89.4127ZM39.6571 90.5098C40.541 90.7453 38.9726 90.9267 39.6571 90.5098V90.5098ZM174.964 91.4873C176.458 92.2898 178.416 92.2344 179.537 93.6705C180.059 94.0566 181.221 93.333 181.395 94.0616C180.507 94.3876 179.231 94.2698 179.005 95.5062C178.179 97.2338 176.129 98.1775 174.389 98.352C173.598 97.6307 171.695 98.2075 171.315 97.2007C171.433 96.3095 170.287 95.8504 171.021 94.9415C171.62 93.4398 172.838 92.1044 174.486 91.846C174.652 91.7542 174.817 91.5118 174.964 91.4875L174.964 91.4873ZM149.319 92.0739C151.924 92.0373 153.272 95.4082 151.882 97.4288C151.723 98.4897 150.48 98.4032 150.112 99.1015C148.153 98.5214 145.706 97.3568 145.593 95.0717C146.225 93.9583 146.337 92.0406 148.08 92.1172C148.493 92.0935 148.906 92.0787 149.319 92.0737L149.319 92.0739ZM161.745 92.8559C162.78 93.3161 160.685 94.5683 161.169 93.0297C161.269 92.8591 161.556 92.8815 161.745 92.8559ZM20.8118 93.6271C20.1849 94.1177 20.2778 93.7009 20.8118 93.6271V93.6271ZM209.711 93.6923C211.247 93.7629 210.676 96.7917 209.168 95.8322C208.244 95.2192 208.525 93.7574 209.711 93.6923ZM57.4268 93.7249C57.4273 93.8058 57.3974 93.6999 57.4268 93.7249V93.7249ZM155.031 93.9095C154.709 94.2489 153.832 94.252 155.031 93.9095V93.9095ZM17.2692 94.029C17.0124 94.4914 15.4083 94.8558 16.574 94.2462C16.7144 94.1948 17.2773 93.9001 17.2692 94.029ZM201.443 94.4092C202.117 95.0325 200.204 95.0404 201.335 94.4418C201.376 94.4471 201.411 94.4191 201.443 94.4092ZM186.693 94.6807C188.164 94.3143 188.656 96.309 187.486 96.9183C186.409 98.1881 184.482 95.8982 185.846 94.9523C186.08 94.7566 186.394 94.6834 186.693 94.6808L186.693 94.6807ZM35.6915 96.3317C36.5858 96.3423 37.2439 97.8462 35.9413 97.8306C35.1991 98.2204 33.8843 97.6576 34.7139 96.8096C34.9617 96.5134 35.3013 96.3296 35.6915 96.3317V96.3317ZM193.07 96.3534C194.22 96.7473 196.298 98.3822 194.829 99.5794C193.724 100.896 192.162 99.5611 191.299 98.6778C190.407 98.7998 188.948 98.4525 188.845 97.483C189.285 96.3564 190.446 96.0899 191.419 96.7661C192.104 97.0114 192.563 96.6671 193.07 96.3534L193.07 96.3534ZM155.249 97.3745C156.417 97.4622 155.992 99.333 154.977 98.6453C154.631 98.3157 154.716 97.4446 155.249 97.3745ZM200.488 97.4396C201.601 97.5025 201.759 99.6796 201.075 100.122C200.1 99.8931 199.441 97.8097 200.488 97.4396ZM145.364 97.5483C145.364 97.6291 145.334 97.5233 145.364 97.5483V97.5483ZM180.925 97.8524C181.919 97.8316 181.293 99.0552 180.631 98.6562C180.446 98.3477 180.443 97.8407 180.925 97.8524ZM33.6918 98.4389C34.5909 98.5476 33.339 99.9467 33.2356 98.8408C33.0516 98.5384 33.4652 98.3995 33.6918 98.4389ZM153.759 99.3622C154.544 99.4673 154.591 100.962 154.433 101.448C153.407 101.904 151.472 100.297 152.945 99.612C153.184 99.4573 153.479 99.3977 153.759 99.3622V99.3622ZM63.9216 99.4817C65.0543 99.5558 64.8184 101.206 63.6609 100.372C63.1136 100.093 63.4024 99.4668 63.9216 99.4817ZM42.5356 99.5143C43.3981 99.4847 42.4019 100.053 42.503 99.5251L42.5247 99.5143H42.5356ZM65.52 101.936C66.0553 101.812 66.7095 102.459 65.8133 102.545C65.3446 102.801 65.2952 102.103 65.52 101.936ZM71.7764 102.034C74.0527 102.875 76.0545 105.799 74.5896 108.171C74.0806 109.756 71.8816 109.325 70.701 108.866C68.9135 107.783 67.693 105.513 68.9414 103.576C69.4928 102.627 70.6331 102.138 71.7764 102.034L71.7764 102.034ZM190.03 102.241C190.739 102.634 189.364 102.767 190.03 102.241V102.241ZM146.594 102.588C148.487 102.512 149.09 105.916 151.102 104.608C152.027 103.371 153.561 104.571 154.306 105.488C155.023 106.604 154.221 108.057 154.056 109.127C153.389 109.635 152.708 107.982 151.819 108.204C150.671 108.489 150.429 106.822 149.299 107.324C147.434 107.193 144.539 105.859 145.15 103.598C145.427 103.056 145.973 102.641 146.594 102.588L146.594 102.588ZM181.287 102.643C182.542 102.344 182.115 104.671 181.015 103.805C180.716 103.472 180.771 102.679 181.287 102.643ZM32.4468 103.012C33.3424 103.419 32.1374 104.032 32.1535 103.24C32.2048 103.12 32.3223 103.038 32.4468 103.012ZM62.175 103.685C63.4975 104.243 64.9906 106.561 63.1309 107.443C61.3263 108.723 59.4295 104.813 61.4907 103.957C61.7109 103.858 61.9301 103.671 62.175 103.685V103.685ZM49.2278 103.685C50.4675 104.264 48.503 104.557 49.2278 103.685V103.685ZM82.0633 105.456C83.1531 105.793 81.2922 106.62 82.0633 105.456V105.456ZM142.933 106.064C143.849 106.212 142.558 106.718 142.639 106.097C142.738 106.097 142.833 106.058 142.933 106.064ZM199.773 107.845C199.626 108.293 199.583 107.906 199.773 107.845V107.845ZM156.337 108.769C156.625 108.885 156.01 108.909 156.337 108.769V108.769ZM68.6162 108.877C69.6103 108.937 68.7413 109.549 68.6162 108.877V108.877ZM86.0496 109.171C86.0214 109.568 85.9507 109.37 86.0496 109.171V109.171ZM82.0307 109.583C83.1073 109.836 83.7825 111.16 85.1046 110.952C86.0986 111.151 87.6333 110.711 88.2002 110.409C87.179 112.28 84.4326 110.562 82.9865 111.973C82.0914 113.186 80.035 112.45 79.7279 111.234C80.159 110.398 81.1847 109.872 82.0307 109.583ZM44.8821 110.235C46.6094 110.043 47.2181 112.491 45.6967 113.211C44.255 114.731 42.0527 111.801 43.7416 110.648C44.0682 110.374 44.4608 110.252 44.8821 110.235V110.235ZM93.446 110.93C93.8818 111.656 92.4044 111.671 93.1745 110.995C93.2622 110.956 93.3491 110.929 93.446 110.93ZM158.769 111.81C159.439 111.717 160.687 112.726 159.41 112.69C158.792 113.191 157.847 113.788 157.607 112.581C157.64 112.065 158.308 111.819 158.769 111.81V111.81ZM91.2415 112.147C92.3641 111.912 92.3811 113.246 91.5022 113.58C90.6254 114.09 89.8308 112.015 91.2415 112.147ZM146.918 112.766C148.082 112.984 146.857 115.485 146.158 113.798C145.949 113.368 146.521 112.811 146.918 112.766ZM86.2989 113.016C87.8387 113.61 87.6704 115.554 86.7877 116.665C86.0426 118.367 83.0086 118.366 82.204 116.85C82.6208 115.548 82.707 113.366 84.6262 113.613C85.2276 113.531 85.7287 113.159 86.299 113.016L86.2989 113.016ZM132.353 113.016C133.433 113.098 133.623 112.848 132.744 113.255C132.799 113.472 131.702 112.818 132.353 113.016ZM149.33 113.016C150.147 113.723 148.565 113.922 149.135 113.059C149.198 113.04 149.265 113.019 149.33 113.016ZM152.893 113.646C154.166 113.878 154.682 115.028 155.152 116.035C156.061 116.45 154.363 116.852 154.739 117.632C154.426 118.294 152.797 118.431 153.892 119.37C155.566 120.326 155.926 121.843 155.533 123.691C155.505 125.686 155.625 128.678 153.088 129.08C152.322 129.191 152.375 130.157 152.002 130.427C150.955 131.23 150.56 129.239 150.221 128.472C150.043 127.889 149.789 127.838 150.351 127.408C150.727 126.564 150.148 125.712 150.764 124.974C151.055 123.232 150.518 121.085 152.276 119.953C153.704 118.687 150.814 118.095 150.829 116.611C150.437 115.228 151.472 113.737 152.893 113.645L152.893 113.646ZM141.944 114.764C142.716 114.703 142.729 115.975 142.02 115.221C141.963 115.098 141.863 114.864 141.944 114.764ZM158.574 115.286C158.348 115.513 158.233 115.357 158.574 115.286V115.286ZM164.634 115.612C165.122 115.936 164.232 116.264 164.634 115.612V115.612ZM138.5 116.665C139.19 117.549 138.813 119.331 138.337 120.358C138.006 120.781 136.954 120.522 136.751 120.38C136.983 119.174 137.358 117.288 138.5 116.665L138.5 116.665ZM129.55 117.187C130.191 117.349 128.813 118.6 129.354 117.621C129.377 117.46 129.317 117.195 129.55 117.187ZM133.026 117.187C133.734 117.58 132.36 117.713 133.026 117.187V117.187ZM145.093 117.534C145.662 117.873 144.779 119.627 145.81 120.054C146.415 120.702 145.918 121.755 145.082 121.184C144.211 120.773 142.78 119.756 143.041 118.934C143.63 118.367 144.271 117.72 145.093 117.534V117.534ZM146.733 117.534C147.782 117.611 145.933 118.811 146.473 117.61C146.546 117.558 146.643 117.537 146.733 117.534ZM131.168 117.545C131.94 117.484 131.953 118.756 131.244 118.001C131.187 117.879 131.087 117.645 131.168 117.545ZM97.3979 117.665C97.3354 118.18 96.8658 117.722 97.3979 117.665V117.665ZM100.982 118.273C101.96 118.288 100.78 119.433 100.863 118.566C100.898 118.485 100.835 118.251 100.982 118.273ZM71.3949 118.61C72.389 118.669 71.52 119.281 71.3949 118.61V118.61ZM26.5273 118.627C27.2246 119.169 25.5763 119.142 26.5273 118.627V118.627ZM166.786 118.952C169.096 118.763 168.606 122.821 166.384 122.374C163.878 122.378 164.855 118.845 166.786 118.952ZM131.398 119.289C131.684 119.936 130.736 120.132 130.996 119.419C131.103 119.342 131.249 119.303 131.398 119.289ZM95.2288 119.789C95.9101 120.437 96.0069 121.307 95.1201 121.809C94.7399 122.887 94.0751 123.701 92.8392 123.895C90.7012 124.893 90.3805 127.748 88.4837 129.108C87.9785 129.807 86.7959 130.558 86.4634 129.293C86.4549 128.634 86.4469 127.812 85.4423 127.979C84.0808 128.045 85.6178 126.538 85.9528 127.533C86.2316 128.9 87.5331 127.363 87.9188 126.816C88.7177 126.023 90.7901 125.474 90.1238 124.014C90.3544 123.996 91.3653 123.147 91.1122 122.352C90.9951 121.689 89.9499 121.781 90.9385 121.114C91.9213 119.915 93.4424 119.544 94.903 119.311L95.0988 119.598L95.2288 119.789ZM173.683 119.409C174.173 119.702 173.561 119.657 173.683 119.409V119.409ZM31.9031 119.539C32.3558 120.159 31.3781 120.126 31.9031 119.539V119.539ZM182.753 119.691C183.189 119.691 184.767 120.025 184.426 120.332C184.097 120.455 182.271 119.941 182.753 119.691ZM128.184 119.887C128.472 120.003 127.857 120.027 128.184 119.887V119.887ZM98.8461 119.995C99.7863 120.253 98.948 121.577 98.5528 120.745C98.5797 120.508 98.6108 120.076 98.8461 119.995ZM183.47 121.407C184.508 121.32 185.477 122.932 184.926 123.645C183.877 124.155 181.524 123.377 182.482 122.005C182.687 121.692 183.062 121.436 183.47 121.407L183.47 121.407ZM126.803 121.711C126.717 121.752 126.717 121.671 126.803 121.711V121.711ZM118.668 121.874C119.432 122.19 118.235 123.037 118.287 122.178C118.34 122.016 118.498 121.892 118.668 121.874ZM129.703 122.396C130.771 122.634 131.102 124.262 131.897 124.568C131.58 125.724 132.749 125.213 133.299 124.981C134.195 125.428 133.71 127.443 134.906 127.349C134.054 127.811 134.354 128.912 134.852 129.119C134.127 129.648 134.051 130.738 133.016 130.889C132.059 131.54 132.351 133.254 132.039 133.866C131.224 133.252 129.018 131.743 128.509 133.377C128.763 134.189 130.105 134.428 129.714 135.571C129.53 136.686 128.468 134.832 127.802 135.234C127.033 134.986 124.972 135.296 125 134.192C126.059 134.342 127.326 133.992 126.923 132.617C126.67 131.163 124.936 130.191 125.684 128.533C125.838 126.871 127.557 126.602 128.639 127.522C130.26 127.126 130.715 124.727 130.366 123.319C130.216 123.049 128.733 122.607 129.703 122.396L129.703 122.396ZM122.23 122.406C122.926 122.644 123.509 124.344 122.426 124.199C121.927 123.824 121.796 122.844 122.23 122.406ZM138.719 122.483C139.808 122.82 137.948 123.646 138.719 122.483V122.483ZM144.725 123.102C145.727 123.376 146.471 124.464 147.647 124.546C149.277 124.488 148.009 126.857 149.211 127.631C148.111 127.46 148.475 128.918 148.375 129.293C147.994 128.71 146.527 127.996 146.8 129.282C146.451 128.628 145.314 129.287 145.149 128.239C144.581 127.606 143.914 128.604 143.683 127.74C142.393 127.897 142.855 129.968 141.434 130.184C140.593 130.356 140.07 132.288 139.381 131.227C138.099 131.343 137.188 129.553 137.763 128.544C138.626 128.204 140.724 128.382 139.979 126.86C138.894 125.978 140.864 124.868 141.727 124.992C143.167 125.522 142.736 123.444 143.987 123.287C144.216 123.177 144.471 123.119 144.725 123.102L144.725 123.102ZM84.7246 123.145C85.7112 122.867 86.3826 124.124 85.3872 124.59C84.2572 124.701 84.1421 126.828 83.0085 126.393C82.2139 125.772 82.9127 125.301 83.7037 125.491C85.0631 125.304 83.5056 123.283 84.7247 123.145L84.7246 123.145ZM133.06 123.449C133.592 123.694 132.41 123.54 133.06 123.449V123.449ZM179.885 123.992C181.255 123.707 182.299 125.836 180.645 126.219C179.752 126.492 178.365 125.605 178.527 124.698C178.9 124.336 179.341 123.998 179.885 123.992L179.885 123.992ZM98.0415 124.492C98.5124 125.409 96.5465 126.019 97.1834 124.861C97.4046 124.63 97.7211 124.492 98.0415 124.492ZM191.454 124.687C191.929 125.1 190.32 125.47 191.237 124.796C191.304 124.756 191.37 124.693 191.454 124.687ZM62.5021 124.84C62.4162 124.88 62.4162 124.799 62.5021 124.84V124.84ZM183.351 124.937C183.619 125.217 183.238 124.92 183.351 124.937V124.937ZM115.334 125.535C115.248 125.575 115.248 125.494 115.334 125.535V125.535ZM74.4723 125.871C75.2566 126.19 73.4827 126.172 74.4289 125.871H74.4723ZM171.762 125.947C172.954 126.232 170.585 127.561 171.491 126.338C171.583 126.212 171.614 125.997 171.762 125.947ZM188.707 125.969C189.518 126.064 189.646 127.226 188.642 126.882C188.358 126.686 188.384 126.141 188.707 125.969ZM160.041 125.98C161.521 126.064 160.863 128.222 159.661 127.555C159.664 127.099 159.581 126.193 160.041 125.98ZM61.7952 126.219C62.0729 126.503 61.1584 126.576 61.7952 126.219V126.219ZM115.148 126.686C115.933 127.337 113.977 127.169 114.833 126.751C114.931 126.722 115.038 126.663 115.148 126.686ZM175.258 126.947C176.744 126.736 177.235 129.729 175.605 129.217C174.682 128.829 173.706 127.471 175.084 126.979C175.145 126.992 175.198 126.94 175.258 126.947L175.258 126.947ZM123.87 128.011C124.733 127.982 123.737 128.55 123.838 128.022L123.859 128.011H123.87ZM95.478 128.304C96.2855 128.813 94.9423 128.641 95.478 128.304V128.304ZM182.177 128.402C183.144 128.408 184.108 130.76 182.568 130.379C181.566 130.243 180.19 128.798 182.177 128.402ZM121.578 128.576C121.866 128.693 121.251 128.717 121.578 128.576V128.576ZM116.093 129.054C116.461 129.471 115.854 130.42 115.539 129.488C115.128 128.876 115.751 129.246 116.093 129.054ZM122.979 129.347C123.645 129.942 122.258 130.383 122.556 129.554C122.636 129.416 122.827 129.351 122.979 129.347ZM146.854 129.412C146.99 130.131 148.52 131.017 147.853 131.661C146.945 131.688 146.248 130.543 146.919 129.825C146.931 129.691 146.878 129.493 146.854 129.412L146.854 129.412ZM159.627 129.51C160.124 129.933 159.244 131.41 159.149 130.433C159.248 130.13 159.418 129.674 159.627 129.51ZM135.872 130.216C136.666 130.682 136.605 132.734 135.405 131.867C133.856 131.485 135.206 130.669 135.872 130.216ZM163.558 130.509C164.465 130.541 165.507 131.839 165.166 132.66C164.255 133.324 163.698 134.523 163.841 135.517C163.093 135.77 164.317 134.735 163.493 134.387C162.559 133.666 161.183 133.053 161.853 131.607C162.036 130.891 162.903 130.603 163.558 130.509L163.558 130.509ZM188.118 130.564C189.266 131.334 186.972 131.3 188.118 130.564V130.564ZM179.569 131.085C180.761 131.099 180.487 132.689 179.287 132.063C178.978 131.804 178.906 130.906 179.569 131.085ZM92.2286 131.563C93.1533 132.084 90.9904 132.398 91.881 131.693C91.9845 131.622 92.1056 131.578 92.2286 131.563ZM155.65 132.139C155.564 132.179 155.564 132.098 155.65 132.139V132.139ZM176.147 132.128C177.222 132.066 176.279 133.431 175.614 132.66C174.888 132.35 175.825 132.119 176.147 132.128ZM168.098 132.823C169.084 132.918 169.25 134.53 167.989 134.224C166.687 134.341 166.908 133.248 168.098 132.823ZM140.542 132.899C141.221 133.059 140.346 134.543 140.347 133.377C140.362 133.206 140.394 132.995 140.542 132.899ZM159.116 133.095C159.404 133.211 158.789 133.235 159.116 133.095V133.095ZM85.9714 133.268C86.7256 134.056 85.6818 134.113 85.9714 133.268V133.268ZM89.6318 133.518C90.7286 133.771 89.1244 135.8 89.2408 134.181C89.2278 133.917 89.2879 133.509 89.6318 133.518ZM134.058 134.17C134.652 135.197 132.627 135.681 133.721 136.635C134.441 138.026 136.408 137.799 137.251 138.905C137.738 139.97 136.237 141.087 137.414 141.947C138.305 142.425 138.747 143.471 137.772 144.119C135.98 145.472 137.986 145.447 138.891 145.977C139.408 146.93 139.077 147.937 137.848 147.378C137.14 147.305 136.349 145.779 136.035 147.117C135.952 147.454 136.146 149.464 135.6 148.964C135.469 147.322 133.697 147.091 132.374 147.53C131.715 147.693 131.286 148.436 131.006 147.345C130.233 146.276 130.218 144.864 131.201 144.011C131.476 142.768 131.483 141.437 132.591 140.578C133.47 139.279 131.68 138.016 130.506 138.026C131.578 137.559 130.586 135.537 132.027 135.43C132.841 135.703 133.829 133.281 134.058 134.17L134.058 134.17ZM181.089 134.04C182.057 134.317 181.078 135.562 180.992 134.365C181.003 134.262 181.019 134.098 181.089 134.04ZM110.802 134.05C111.456 134.37 111.306 135.613 110.433 135.115C109.86 135.19 109.95 136.567 109.379 135.604C108.924 134.838 109.359 134.362 110.172 134.431C110.417 134.367 110.614 134.193 110.802 134.05L110.802 134.05ZM193.504 134.702C193.668 134.814 193.34 134.818 193.504 134.702V134.702ZM53.5802 134.908C54.5945 134.985 54.2811 137.119 53.4716 135.897C53.2331 135.65 53.0828 134.907 53.5802 134.908ZM144.528 134.93C145.386 134.998 144.769 136.418 144.343 135.43C144.279 135.243 144.295 134.963 144.528 134.93ZM81.0079 134.995C82.0575 136.211 80.1036 136.078 81.0079 134.995V134.995ZM146.549 135.137C146.713 135.392 147.435 137.321 146.853 136.255C146.686 136.031 146.395 134.917 146.549 135.137ZM116.212 135.061C117.279 135.007 117.03 136.106 117.222 136.722C118.053 137.244 119.582 136.725 119.721 138.156C120.609 139.859 118.089 138.755 117.092 138.732C116.582 138.425 115.023 138.235 115.713 139.21C116.372 139.642 116.209 140.404 115.408 140.1C114.315 139.73 113.151 138.103 114.561 137.352C115.985 137.35 114.981 135.211 116.212 135.061L116.212 135.061ZM178.332 135.202C179.152 135.097 180.782 136.602 179.429 136.94C178.133 137.596 176.981 136.086 178.18 135.234C178.231 135.225 178.28 135.2 178.332 135.202L178.332 135.202ZM166.514 135.278C166.926 136.064 165.828 136.283 166.514 135.278V135.278ZM187.804 135.951C188.68 136.208 187.569 137.18 187.5 136.234C187.543 136.085 187.651 135.975 187.804 135.951ZM125.099 136.321C125.254 137.284 126.983 137.553 126.37 138.667C125.731 138.785 124.313 138.556 124.252 137.961C125.179 137.507 125.573 137.628 125.099 136.321V136.321ZM185.241 136.342C185.918 136.809 186.069 138.72 185.404 139.079C184.46 138.835 184.249 136.495 185.241 136.342ZM150.884 136.364C151.962 136.348 151.716 138.622 150.742 137.548C150.185 137.181 150.007 136.417 150.884 136.364ZM171.423 136.407C172.597 136.955 171.965 138.869 170.935 139.003C169.858 138.402 170.336 136.663 171.423 136.407ZM160.062 136.701C161.347 136.679 161.614 137.858 160.898 138.764C159.781 139.322 158.605 137.135 160.062 136.701ZM67.8124 136.733C68.9022 137.071 67.0413 137.897 67.8124 136.733V136.733ZM141.847 136.733C142.731 136.969 141.163 137.15 141.847 136.733V136.733ZM139.479 137.342C140.383 137.485 138.85 138.536 139.143 137.439C139.236 137.361 139.362 137.352 139.479 137.342ZM86.7772 137.689C88.3752 138.048 87.3619 140.784 85.8757 139.601C85.3677 138.863 85.8153 137.721 86.7772 137.689ZM146.345 139.079C147.23 139.028 147.188 140.697 146.29 139.927C146.05 139.73 145.877 139.094 146.345 139.079ZM77.8395 139.112C78.8136 139.376 77.9247 140.237 77.4485 139.525C77.3047 139.276 77.6305 139.111 77.8395 139.112ZM196.755 139.145C197.727 139.569 196.44 139.895 196.755 139.145V139.145ZM143.346 139.427C144.08 139.499 143.151 141.047 142.814 140.024C142.441 139.606 142.99 139.384 143.346 139.427ZM156.663 139.568C156.827 139.68 156.5 139.684 156.663 139.568V139.568ZM191.052 140.187C192.543 140.707 189.643 140.934 191.02 140.187H191.052ZM121.96 140.296C123.27 140.431 121.339 142.123 121.374 140.806C121.393 140.494 121.632 140.274 121.96 140.296ZM126.001 140.47C126.872 140.75 127.603 141.583 128.629 141.295C129.828 141.632 129.968 142.953 128.922 143.609C128.47 143.817 127.015 144.289 127.032 143.696C127.56 142.236 125.456 142.83 125.066 142.36C125.159 141.719 125.208 140.637 126.001 140.47H126.001ZM111.554 140.763C112.519 140.957 113.122 142.457 112.206 142.783C111.938 142.22 111.375 141.136 111.554 140.763ZM178.017 140.785C179.969 140.777 180.288 144.848 178.017 144.174C176.425 143.969 175.739 141.609 177.365 140.937C177.571 140.828 177.78 140.795 178.017 140.785V140.785ZM118.016 140.861C118.994 140.876 117.814 142.021 117.897 141.154C117.932 141.073 117.869 140.839 118.016 140.861ZM153.232 141.187C154.248 141.169 154.553 142.656 155.621 142.349C156.017 143.263 154.792 141.933 154.394 142.61C153.743 143.502 151.814 143.063 151.841 142.001C152.157 141.538 152.664 141.196 153.231 141.187H153.232ZM163.811 141.317C165.415 141.219 164.564 144.443 163.387 143.196C162.483 142.54 162.586 141.392 163.811 141.317ZM157.555 141.513C158.187 141.473 157.929 143.211 157.392 142.153C157.183 141.9 157.042 141.46 157.555 141.513ZM160.335 141.567C161.293 142.171 161.105 144.083 160.02 142.577C159.498 142.261 160.09 141.818 160.335 141.567ZM115.747 141.567C116.996 141.842 118.432 143.295 119.722 142.36C119.922 143.163 120.954 142.271 121.091 143.207C121.603 143.838 123.008 143.179 122.612 144.271C122.686 144.848 123.931 145.561 122.97 145.966C121.932 145.498 119.769 147.008 121.341 147.758C123.287 148.277 125.147 145.899 126.946 147.508C127.88 147.927 128.21 148.651 128.423 149.507C129.156 150.024 129.843 151.384 128.814 151.81C127.746 151.034 127.091 152.599 127.228 153.471C126.325 152.457 125.346 155.179 126.533 155.47C127.027 156.061 126.874 158.068 125.979 157.262C124.899 156.272 123.436 155.747 122.308 154.742C121.457 154.733 122.239 153.943 121.439 153.537C120.965 152.722 119.913 152.83 119.494 153.189C120.415 152.975 120.979 150.98 119.56 151.103C118.785 151.119 118.843 149.567 118.115 149.214C117.419 148.617 116.753 147.418 117.213 146.639C119.004 146.973 118.383 142.904 116.757 144.239C116.685 145.362 115.393 144.925 114.585 145.01C115.298 144.026 115.19 142.714 115.324 141.686C115.445 141.603 115.602 141.573 115.747 141.567L115.747 141.567ZM182.329 142.349C182.623 142.926 181.28 142.986 182.177 142.425C182.221 142.394 182.275 142.351 182.329 142.349ZM50.9979 142.555C51.537 142.865 50.762 143.735 50.8241 142.827C50.8471 142.727 50.8845 142.587 50.9979 142.555ZM191.941 142.74C191.716 142.967 191.601 142.811 191.941 142.74V142.74ZM124.456 143.685C125.17 143.743 124.548 144.216 124.304 143.75C124.336 143.718 124.404 143.698 124.456 143.685ZM159.085 143.815C159.912 143.947 159.238 145.253 158.987 144.228C158.977 144.097 158.957 143.887 159.085 143.815ZM140.5 144.641C141.599 144.901 140.739 145.75 139.968 145.249C139.798 145.035 140.25 144.624 140.5 144.641ZM162.125 144.76C162.754 145.293 163.929 145.955 164.091 146.715C163.105 146.824 162.112 145.403 162.125 144.76ZM155.988 145.14C156.583 145.668 155.722 146.515 155.51 145.618C155.52 145.38 155.75 145.134 155.988 145.14ZM81.0079 145.705C81.5374 146.537 79.3038 146.102 80.5408 145.836C80.6943 145.773 80.8416 145.721 81.0079 145.705ZM177.374 145.749C178.291 145.871 177.613 147.51 177.211 147.932C176.392 148.52 174.363 147.441 175.745 146.574C176.223 146.201 176.755 145.815 177.374 145.749V145.749ZM189.355 145.89C190.928 145.526 190.775 147.659 190.224 148.475C189.471 149.704 192.179 150.117 192.298 150.082C191.594 151.278 193.713 152.377 192.744 153.623C192.056 154.764 193.006 155.72 193.189 156.806C193.245 157.412 195.064 158.109 194.308 158.511C193.166 158.816 193.193 156.91 192.168 156.578C191.354 155.617 189.805 156.308 190.321 157.523C189.974 156.848 188.636 155.849 188.138 157.023C187.617 157.562 187.661 156.014 187.106 155.85C186.638 154.928 185.541 155.092 185.618 156.067C184.386 156.565 183.532 155.344 184.097 154.319C185.255 154.216 186.002 153.236 185.64 152.059C185.731 151.119 185.598 149.881 186.704 149.789C187.383 148.934 189.879 149.154 188.909 147.53C188.133 147.163 188.428 145.751 189.355 145.89L189.355 145.89ZM150.99 145.944C152.618 145.717 153.699 147.242 153.357 148.768C153.344 149.5 153.449 151.853 152.108 151.082C152.013 150.456 152.433 149.271 151.272 149.648C149.974 148.95 150.145 146.961 150.848 145.955L150.935 145.944L150.99 145.944ZM77.5205 146.074C79.226 145.917 78.9088 148.214 77.5422 148.421C76.3067 148.091 76.087 146.161 77.5205 146.074ZM67.4733 146.129C68.2731 146.474 68.1501 146.981 67.2126 146.672C66.6739 146.639 67.2939 146.195 67.4733 146.129ZM128.247 146.27C128.637 147.004 127.835 146.745 128.247 146.27V146.27ZM156.195 147.172C157.101 147.624 155.753 148.132 155.913 147.334C155.96 147.232 156.084 147.142 156.195 147.172ZM169.24 147.487C170.054 147.168 170.913 148.422 170.131 148.823C169.382 149.128 168.205 147.738 169.24 147.487ZM115.364 147.649C116.406 147.57 116.36 149.428 115.94 149.876C114.961 149.712 115.359 151.783 114.789 150.767C113.883 150.467 112.235 149.623 113.453 148.551C113.988 148.053 114.651 147.777 115.364 147.65L115.364 147.649ZM144.854 147.921C144.875 149.015 143.92 148.099 144.854 147.921V147.921ZM143.224 148.019C143.491 149.016 143.025 150.258 141.823 149.768C141.062 149.094 142.03 148.192 142.855 148.345C143.019 148.306 143.135 148.102 143.224 148.019H143.224ZM161.744 148.225C164.111 148.052 165.46 151.694 163.199 152.82C160.707 153.927 158.388 149.647 160.907 148.399C161.174 148.285 161.448 148.238 161.744 148.225L161.744 148.225ZM88.2853 148.508C89.165 149.655 88.5711 151.614 87.1991 151.897C85.8279 151.296 87.3253 148.891 88.2853 148.508ZM185.554 148.812C185.863 149.697 184.566 148.772 185.554 148.812V148.812ZM93.7273 148.975C94.2152 149.299 93.3249 149.627 93.7273 148.975V148.975ZM111.334 149.746C112.42 149.851 111.545 151.171 111.03 150.224C110.943 149.981 111.066 149.757 111.334 149.746ZM131.961 150.202C132.998 149.788 134.014 150.956 133.112 151.734C132.267 152.388 131.497 150.95 130.788 150.778C130.495 149.984 131.551 150.293 131.961 150.202H131.961ZM171.694 150.321C172.513 150.295 172.599 151.634 171.694 151.147C171.405 150.977 171.438 150.44 171.694 150.321ZM177.646 150.908C178.885 150.815 177.887 152.964 177.418 151.603C177.32 151.323 177.23 150.918 177.646 150.908ZM114.756 152.125C116.086 152.078 116.406 153.245 115.94 154.286C116.161 155.194 114.074 155.917 115.31 156.447C116.216 156.136 117.287 157.225 116.201 157.707C115.279 158.017 114.637 156.327 114.028 155.807C114.112 154.643 114.23 153.216 114.039 151.972C114.278 152.023 114.517 152.074 114.756 152.124L114.756 152.125ZM138.923 152.092C140.252 152.274 139.385 154.021 138.477 153.135C138.288 152.776 138.465 152.122 138.923 152.092ZM151.783 152.287C152.885 152.815 150.974 153.6 151.599 152.374C151.657 152.329 151.714 152.3 151.783 152.287ZM112.202 152.994C112.116 153.034 112.116 152.953 112.202 152.994V152.994ZM133.707 153.124C134.197 153.417 133.585 153.372 133.707 153.124V153.124ZM109.91 153.808C109.847 154.324 109.378 153.866 109.91 153.808V153.808ZM83.8414 153.776C83.8036 154.271 82.575 153.768 82.5923 154.634C82.6584 155.071 82.1464 155.802 82.299 154.992C82.5189 154.128 83.0043 153.923 83.8414 153.776V153.776ZM127.072 153.786L127.083 153.83L127.072 153.786ZM174.757 154.645C175.045 154.761 174.43 154.785 174.757 154.645V154.645ZM122.902 157.664C123.429 157.95 122.575 158.315 122.902 157.664V157.664ZM118.112 157.86C118.026 157.9 118.026 157.819 118.112 157.86V157.86Z" fill="#FF0E0E"/>
</g>
<path d="M175.136 42.375C124.77 42.375 80 61.7437 80 92.7414C80 115.988 102.385 135.357 135.963 135.357C155.292 135.357 175.758 123.689 190.397 123.689C190.918 123.689 191.427 123.705 191.925 123.733C213.801 125.049 214.31 143.108 242.292 143.108C255.392 143.108 270.273 131.484 270.273 104.365C270.273 69.4945 231.099 42.375 175.136 42.375Z" fill="#FFD983"/>
<path d="M259.08 81.548H270.273V103.933H259.08V81.548ZM80 70.3555H91.1925V92.7405H80V70.3555Z" fill="#FFD983"/>
<path d="M242.295 116.855C229.586 116.855 223.928 112.63 217.364 107.744C211.381 103.284 204.599 98.2359 192.416 97.4972C191.75 97.4581 191.084 97.4357 190.401 97.4357C182.382 97.4357 173.735 100.139 164.586 103.01C155.005 106.004 145.099 109.104 135.972 109.104C106.787 109.104 85.6055 92.8076 85.6055 70.3609C85.6055 40.1635 131.741 23.8672 175.146 23.8672C227.029 23.8672 264.686 48.3061 264.686 81.9844C264.68 107.565 251.288 116.855 242.295 116.855Z" fill="#A0041E"/>
<path d="M175.136 27.743C223.774 27.743 259.08 50.5534 259.08 81.982C259.08 105.173 247.552 112.974 242.292 112.974C232.028 112.974 227.825 109.846 221.457 105.1C215.116 100.377 207.225 94.4952 192.893 93.6334C192.076 93.583 191.242 93.5551 190.397 93.5551C181.175 93.5551 171.991 96.4315 162.276 99.4703C153.233 102.302 143.887 105.223 135.963 105.223C113.712 105.223 91.1925 93.2417 91.1925 70.3585C91.1925 42.6794 134.446 27.743 175.136 27.743V27.743ZM175.136 19.9922C124.77 19.9922 80 39.3609 80 70.3585C80 93.6054 102.385 112.974 135.963 112.974C155.292 112.974 175.758 101.306 190.397 101.306C190.918 101.306 191.427 101.323 191.925 101.351C213.801 102.666 214.31 120.725 242.292 120.725C255.392 120.725 270.273 109.101 270.273 81.982C270.273 47.1117 231.099 19.9922 175.136 19.9922Z" fill="#FFE8B6"/>
<path d="M164.848 28.0695C164.848 28.0695 180.735 27.7449 191.928 35.4901C197.524 39.3627 193.803 48.0817 193.803 48.0817L203.12 50.9918C203.12 50.9918 202.774 46.3189 219.909 43.241C232.506 40.9801 245.328 50.9918 245.328 50.9918C245.328 50.9918 231.102 31.6175 203.12 27.7449C175.139 23.8667 164.848 28.0695 164.848 28.0695Z" fill="#FFE8B6"/>
<path d="M214.313 58.7304C214.313 67.2871 204.29 74.2265 191.928 74.2265C179.566 74.2265 169.543 67.2871 169.543 58.7304C169.543 50.1737 179.566 43.2344 191.928 43.2344C204.29 43.2344 214.313 50.1737 214.313 58.7304Z" fill="#E6E7E8"/>
<path d="M203.114 58.7296C203.114 63.0107 198.099 66.4804 191.921 66.4804C185.743 66.4804 180.729 63.0107 180.729 58.7296C180.729 54.4485 185.743 50.9844 191.921 50.9844C198.099 50.9844 203.114 54.4485 203.114 58.7296Z" fill="#A7A9AC"/>
<path d="M229.924 115.515C227.517 113.111 216.734 106.414 206.207 100.59C212.007 92.2796 215.431 82.1908 215.431 71.2914C215.431 42.9606 192.462 19.9922 164.131 19.9922C135.797 19.9922 112.832 42.9606 112.832 71.2914C112.832 99.6222 135.797 122.591 164.131 122.591C174.935 122.591 184.945 119.236 193.215 113.531C199.046 124.068 205.752 134.872 208.16 137.279C212.996 142.115 218.85 143.117 222.27 143.11C226.296 143.103 236.138 133.257 235.95 129.43C235.783 126.014 234.76 120.351 229.924 115.515Z" fill="#292F33"/>
<path d="M164.131 112.333C186.797 112.333 205.171 93.9587 205.171 71.2933C205.171 48.6279 186.797 30.2539 164.131 30.2539C141.466 30.2539 123.092 48.6279 123.092 71.2933C123.092 93.9587 141.466 112.333 164.131 112.333Z" fill="#66757F"/>
<path d="M167.554 105.485C184.185 100.243 181.233 88.3856 181.233 74.7058C181.233 61.026 194.917 51.7648 182.376 41.3613C174.93 35.1849 159.291 33.0953 152.024 35.8039C145.344 38.2902 136.774 43.3552 136.774 53.615C136.774 63.8748 136.576 63.6252 130.933 72.8522C121.955 87.5306 144.041 112.896 167.554 105.485Z" fill="#F5F8FA"/>
<path d="M157.291 95.2307C164.846 95.2307 170.971 89.106 170.971 81.5509C170.971 73.9957 164.846 67.8711 157.291 67.8711C149.736 67.8711 143.611 73.9957 143.611 81.5509C143.611 89.106 149.736 95.2307 157.291 95.2307Z" fill="#FFAC33"/>
<defs>
<filter id="filter0_f_194_240" x="0" y="0" width="214.619" height="162.543" filterUnits="userSpaceOnUse" color-interpolation-filters="sRGB">
<feFlood flood-opacity="0" result="BackgroundImageFix"/>
<feBlend mode="normal" in="SourceGraphic" in2="BackgroundImageFix" result="shape"/>
<feGaussianBlur stdDeviation="2" result="effect1_foregroundBlur_194_240"/>
</filter>
</defs>
</svg>
